 <svg version="1.0" xmlns="http://www.w3.org/2000/svg" width="700.000000pt" height="194.000000pt" viewBox="0 0 700.000000 194.000000" preserveAspectRatio="xMidYMid meet">
<metadata>
Created by potrace 1.12, written by Peter Selinger 2001-2015
</metadata>
<g transform="translate(0.000000,194.000000) scale(0.100000,-0.100000)" fill="#000000" stroke="none">
<path d="M389 1896 c-41 -28 -72 -75 -90 -136 -10 -32 -21 -46 -50 -60 -45
-23 -86 -71 -110 -128 -22 -50 -25 -154 -8 -217 15 -53 -2 -123 -57 -240 -70
-150 -75 -166 -63 -181 16 -19 19 -18 62 22 21 20 40 34 43 32 2 -3 -12 -40
-33 -84 -21 -46 -37 -95 -37 -119 l-1 -40 53 -3 c31 -2 52 -8 53 -15 0 -7 0
-43 -1 -82 -1 -63 2 -75 30 -117 17 -26 37 -69 43 -95 13 -53 37 -67 54 -31 5
13 23 76 38 140 15 64 34 119 41 122 7 3 24 -4 37 -15 38 -29 71 -24 100 15
19 24 39 37 73 45 75 19 124 87 124 173 0 28 -18 47 -29 31 -3 -5 -23 -22 -43
-37 -50 -37 -76 -32 -97 21 -9 23 -19 44 -23 48 -3 4 -32 1 -64 -5 -48 -10
-67 -21 -108 -61 -27 -27 -53 -49 -57 -49 -4 0 -15 7 -23 16 -30 29 -16 121
38 256 l27 66 -20 41 c-25 48 -27 110 -5 154 9 18 36 58 61 90 49 63 83 140
83 186 0 16 6 34 14 41 20 16 113 40 156 40 76 0 127 63 83 102 -27 24 -92 48
-129 48 -24 0 -41 8 -56 25 -28 32 -63 32 -109 1z"></path>
<path d="M6466 1571 c-4 -5 -5 -36 -5 -68 1 -32 -1 -76 -6 -99 -6 -37 -4 -44
24 -77 19 -21 38 -34 46 -31 17 7 75 119 75 144 0 23 -38 70 -56 70 -8 0 -22
16 -30 35 -14 33 -36 45 -48 26z"></path>
<path d="M920 1552 c-24 -19 -24 -19 -11 -123 6 -57 17 -133 23 -169 11 -67
10 -84 -12 -220 -12 -75 -12 -77 18 -148 29 -68 30 -76 21 -145 -5 -39 -7 -89
-3 -109 5 -32 8 -36 23 -26 13 8 25 6 49 -6 17 -9 33 -16 37 -16 11 0 4 59
-11 101 -12 31 -17 80 -18 167 l-1 124 33 29 c38 34 69 37 106 8 37 -29 56
-70 56 -122 0 -62 22 -128 54 -161 25 -24 27 -32 21 -64 -13 -64 -12 -77 11
-80 33 -5 49 24 47 88 -1 58 -26 124 -57 149 -22 19 -20 56 6 103 15 27 19 43
13 52 -6 7 -23 33 -39 57 -42 63 -51 70 -88 67 -30 -3 -33 0 -38 31 -7 45 -23
49 -50 11 -23 -33 -36 -36 -73 -19 -34 15 -46 84 -39 227 4 96 2 115 -12 131
-10 11 -16 31 -14 47 4 35 -19 42 -52 16z"></path>
<path d="M3281 1507 c-11 -19 -27 -60 -35 -93 -26 -109 -45 -199 -56 -270 -10
-65 -13 -71 -43 -84 -18 -7 -43 -16 -57 -19 -43 -10 -35 -36 19 -65 28 -14 57
-26 64 -26 9 0 17 -17 21 -47 5 -39 2 -57 -20 -101 -23 -48 -25 -56 -13 -84
15 -37 14 -221 -2 -251 -14 -25 6 -50 21 -27 14 21 30 80 30 108 0 12 7 39 15
59 9 20 15 62 14 92 -1 31 4 81 10 111 6 30 9 70 6 88 -7 36 7 42 37 16 10 -9
32 -17 50 -18 18 -1 47 -9 63 -17 37 -20 55 -15 55 15 0 12 6 28 13 35 20 21
-56 81 -105 81 -32 0 -38 3 -38 20 0 18 -4 20 -35 14 -41 -7 -43 -1 -19 70 9
26 14 59 11 74 -3 14 0 50 6 78 9 45 8 54 -6 69 -21 21 -22 17 8 105 13 41 25
81 25 88 0 22 -18 12 -39 -21z"></path>
<path d="M6234 1519 c-7 -11 -12 -58 -33 -283 -5 -54 -14 -103 -20 -109 -7 -7
-35 -14 -64 -17 -49 -5 -53 -7 -71 -45 -10 -22 -33 -57 -52 -79 -42 -49 -44
-88 -8 -160 18 -34 26 -65 25 -95 -2 -61 10 -71 85 -71 61 0 86 11 96 42 8 22
28 -3 40 -50 11 -42 13 -45 19 -22 4 14 7 52 8 85 0 33 6 114 12 181 11 107
10 125 -4 154 -14 26 -15 41 -7 70 15 55 15 117 0 135 -10 12 -10 30 -1 88 8
51 9 87 1 126 -11 61 -15 68 -26 50z m-79 -544 c9 -19 23 -39 31 -46 26 -22
11 -99 -20 -99 -8 0 -19 -7 -26 -15 -17 -20 -50 -19 -66 3 -18 23 -18 77 0 92
8 6 20 28 27 48 21 65 30 68 54 17z"></path>
<path d="M1829 1395 c-4 -5 -10 -64 -13 -130 -4 -66 -12 -147 -17 -181 -7 -47
-5 -72 7 -114 13 -45 14 -63 4 -117 -10 -50 -10 -70 0 -94 9 -20 11 -52 7 -96
-7 -72 1 -183 14 -183 14 0 27 64 33 164 6 113 24 216 37 216 5 0 9 -28 9 -61
0 -54 7 -75 54 -173 48 -99 56 -124 70 -225 16 -115 25 -139 45 -127 16 10 14
50 -5 118 -14 50 -15 69 -5 128 10 64 9 74 -10 114 -11 25 -27 50 -34 56 -9 8
-12 22 -8 41 8 41 -2 71 -42 123 l-35 46 79 65 c43 36 82 72 85 81 13 33 5 85
-20 141 -18 41 -24 69 -21 96 6 46 -12 67 -57 67 -17 0 -37 5 -44 12 -8 8 -15
8 -21 3 -16 -17 -51 -85 -51 -99 0 -7 -6 -19 -14 -25 -18 -15 -27 10 -35 99
-3 36 -9 61 -12 55z m161 -202 c-1 -10 -7 -29 -14 -42 -10 -18 -11 -31 -3 -52
8 -20 7 -38 -3 -68 -7 -23 -16 -41 -19 -41 -9 0 -61 89 -61 104 0 8 7 19 15
26 8 7 15 20 15 29 0 9 7 27 16 39 18 27 54 30 54 5z"></path>
<path d="M4108 1390 c-3 -8 -11 -101 -18 -205 -8 -138 -8 -198 0 -219 7 -18 8
-61 4 -117 -5 -61 -3 -93 5 -102 8 -10 9 -33 2 -80 -10 -70 -4 -187 10 -187
17 0 27 38 32 130 7 119 27 250 38 250 5 0 9 -24 9 -54 0 -57 31 -143 78 -219
24 -39 32 -74 55 -226 13 -85 27 -108 45 -74 7 12 4 41 -8 91 -15 61 -17 85
-8 139 12 77 8 95 -31 153 -23 35 -27 48 -19 63 12 24 -4 67 -43 119 -16 20
-29 41 -29 46 0 5 32 36 71 68 104 85 114 123 60 234 -15 31 -20 56 -16 80 7
46 -4 61 -51 70 -22 4 -47 11 -56 15 -13 5 -23 -7 -50 -64 -18 -39 -36 -71
-40 -71 -7 0 -25 82 -31 140 -2 20 -5 29 -9 20z m167 -190 c3 -5 -1 -20 -9
-32 -12 -16 -14 -36 -10 -73 5 -36 2 -60 -8 -80 l-15 -28 -32 46 c-31 45 -40
77 -22 77 5 0 15 17 22 38 6 20 16 43 22 50 11 14 43 16 52 2z"></path>
<path d="M1636 1373 c-16 -16 -36 -76 -36 -109 0 -25 -5 -34 -22 -40 -37 -11
-47 -35 -47 -106 0 -83 -8 -142 -32 -235 -21 -80 -25 -178 -8 -189 7 -4 9 -22
6 -44 -9 -67 9 -66 32 1 11 35 21 70 21 80 0 24 39 142 50 153 22 22 42 -21
47 -96 5 -72 39 -158 63 -158 6 0 10 53 10 128 0 101 -4 136 -17 163 -12 24
-17 64 -19 144 -1 69 -7 124 -16 145 -8 19 -13 51 -11 70 5 42 -9 105 -21 93z
m-16 -293 c0 -33 -2 -60 -4 -60 -17 0 -36 15 -36 27 0 26 23 93 32 93 4 0 8
-27 8 -60z"></path>
<path d="M2375 1357 c-10 -16 -20 -50 -23 -77 -4 -39 -9 -51 -26 -56 -36 -12
-45 -35 -46 -119 0 -44 -10 -120 -21 -170 -27 -114 -35 -221 -19 -241 8 -9 10
-29 6 -53 -3 -22 -2 -42 3 -46 9 -5 34 67 66 197 9 37 23 75 30 85 24 32 45
-3 52 -88 5 -73 40 -159 63 -159 6 0 10 54 10 130 0 107 -3 135 -17 157 -14
21 -18 53 -20 145 -2 76 -8 130 -17 153 -9 20 -13 48 -10 63 3 15 1 45 -3 67
l-9 40 -19 -28z m-5 -277 c0 -33 -2 -60 -4 -60 -36 0 -44 31 -24 87 18 50 28
40 28 -27z"></path>
<path d="M4930 1355 c-6 -14 -10 -79 -10 -143 -1 -64 -5 -151 -10 -192 -24
-190 -24 -232 1 -289 23 -54 23 -54 6 -136 -21 -103 -21 -140 -1 -174 14 -23
15 -42 7 -127 -5 -54 -6 -137 -3 -184 4 -76 7 -85 25 -85 25 0 33 33 45 205
17 231 37 373 57 387 9 8 46 13 83 13 76 0 84 6 115 80 10 25 35 63 56 85 49
54 59 75 59 132 0 37 -10 70 -40 132 -37 77 -40 88 -34 140 9 82 -7 94 -125
92 -108 -2 -119 -5 -127 -40 -13 -63 -18 -65 -42 -22 -13 22 -26 63 -29 91 -7
59 -19 72 -33 35z m268 -311 c30 -60 28 -87 -8 -124 -16 -17 -30 -40 -30 -51
0 -11 -9 -38 -21 -60 -17 -33 -23 -38 -35 -29 -8 7 -14 17 -14 22 0 5 -18 35
-41 66 -35 50 -40 62 -35 95 7 44 26 77 43 77 6 0 24 11 40 24 55 45 71 42
101 -20z"></path>
<path d="M6880 1338 c-11 -24 -20 -57 -20 -75 0 -25 -6 -35 -27 -45 -24 -11
-28 -20 -30 -63 -4 -79 -23 -203 -44 -285 -22 -89 -24 -149 -5 -175 8 -12 12
-33 8 -57 -2 -21 0 -38 5 -38 9 0 23 43 53 160 19 77 42 130 56 130 19 0 24
-12 35 -101 9 -76 36 -150 59 -164 17 -10 12 265 -5 295 -10 17 -14 59 -15
136 0 79 -4 120 -15 140 -9 18 -15 57 -15 101 0 39 -5 75 -10 78 -6 4 -19 -13
-30 -37z m-3 -314 c-2 -3 -12 -1 -22 2 -19 8 -17 36 7 89 13 30 13 29 16 -29
2 -32 1 -60 -1 -62z"></path>
<path d="M2773 1315 c-11 -8 -28 -32 -37 -54 -8 -22 -24 -45 -35 -50 -11 -6
-30 -25 -42 -43 -20 -27 -23 -44 -23 -127 -1 -88 -4 -102 -34 -161 -42 -85
-43 -102 -1 -80 23 13 25 -3 4 -40 -8 -14 -14 -37 -15 -52 0 -24 4 -28 30 -28
29 0 30 -1 30 -47 0 -31 7 -59 20 -78 11 -16 20 -38 20 -47 0 -19 15 -24 24
-9 3 4 12 35 21 67 18 69 26 79 53 65 15 -8 26 -5 53 14 18 14 38 25 45 25 21
0 54 51 54 83 0 29 -1 29 -18 14 -27 -25 -60 -21 -74 8 -6 14 -15 25 -19 25
-19 0 -66 -23 -86 -42 -12 -11 -29 -18 -37 -15 -22 9 -20 46 5 113 19 49 20
61 9 94 -15 45 -8 73 33 124 17 22 36 60 43 85 11 46 11 46 72 61 80 20 95 35
63 61 -13 11 -35 22 -50 25 -14 3 -34 9 -43 15 -25 13 -40 11 -65 -6z"></path>
<path d="M6459 1159 c-17 -56 -19 -76 -10 -95 11 -25 41 -33 41 -12 0 8 3 9
11 1 13 -13 7 -232 -8 -285 -8 -28 -8 -41 2 -55 18 -26 36 -122 33 -174 -3
-43 -2 -44 30 -47 l34 -3 -7 83 c-4 51 -2 102 5 133 7 28 14 82 17 120 4 65 3
73 -26 115 -29 44 -29 47 -21 115 5 39 9 94 10 122 l0 53 -25 -12 c-19 -9 -28
-9 -37 0 -21 21 -27 13 -49 -59z"></path>
<path d="M3658 1159 c-10 -5 -18 -18 -18 -28 0 -9 -13 -27 -29 -38 -35 -26
-42 -58 -30 -137 6 -42 5 -71 -3 -93 -11 -30 -9 -36 19 -75 30 -42 53 -101 74
-185 5 -24 14 -43 19 -43 6 0 33 9 61 20 30 11 63 17 79 13 32 -6 96 21 109
46 5 9 11 38 14 64 5 47 4 48 -21 45 -21 -2 -27 -11 -36 -48 l-11 -45 -82 -3
c-97 -3 -94 -6 -114 116 l-13 84 25 19 c13 10 40 19 60 19 23 0 42 7 54 20 13
15 31 20 66 20 27 0 51 5 55 12 12 19 7 108 -8 153 -12 35 -17 40 -53 46 -22
4 -53 12 -68 18 -35 14 -126 14 -149 0z m160 -65 c16 -5 22 -14 22 -36 0 -16
5 -39 11 -50 9 -17 7 -24 -10 -42 -18 -18 -33 -21 -97 -21 -79 1 -94 9 -93 50
0 18 43 57 103 92 24 14 32 15 64 7z"></path>
<path d="M5603 1160 c-13 -5 -23 -17 -23 -26 0 -9 -14 -29 -31 -45 -31 -28
-31 -29 -28 -121 1 -51 -1 -105 -5 -119 -5 -17 -3 -31 6 -40 39 -40 87 -152
88 -204 1 -43 13 -48 76 -29 32 10 77 18 99 18 57 2 105 38 105 79 0 18 3 42
6 55 5 19 2 22 -20 22 -20 0 -27 -6 -32 -27 -15 -72 -17 -73 -103 -73 -44 0
-82 4 -85 8 -7 12 -36 153 -36 178 0 28 40 54 83 54 21 0 41 8 52 20 13 15 31
20 66 20 60 0 73 18 63 92 -10 81 -28 118 -57 118 -14 0 -44 7 -67 15 -47 17
-122 19 -157 5z m161 -69 c18 -8 23 -15 19 -31 -3 -12 0 -32 7 -46 27 -49 -36
-82 -135 -69 -47 5 -54 9 -60 33 -6 23 0 32 37 65 63 56 87 64 132 48z"></path>
<path d="M4625 1025 c-120 -75 -128 -83 -122 -124 3 -20 14 -67 26 -106 11
-38 23 -87 26 -109 8 -46 44 -86 80 -86 19 0 31 -9 43 -31 35 -62 35 -62 65
-39 33 26 68 134 66 205 -1 28 4 72 11 98 16 65 9 86 -45 127 -27 21 -48 46
-51 62 -11 49 -25 50 -99 3z m102 -132 c4 -9 -1 -36 -9 -61 -15 -39 -15 -48
-1 -88 19 -55 11 -92 -22 -100 -35 -9 -42 -1 -48 63 -4 32 -10 80 -13 107 -6
45 -6 48 14 42 16 -5 24 0 38 24 21 34 32 38 41 13z"></path>
</g>
</svg>