<?xml version="1.0" encoding="UTF-8" standalone="no"?>
<!DOCTYPE svg PUBLIC "-//W3C//DTD SVG 1.1//EN" "http://www.w3.org/Graphics/SVG/1.1/DTD/svg11.dtd">
<svg width="100%" height="100%" viewBox="0 0 1864 2000" version="1.1" xmlns="http://www.w3.org/2000/svg" xmlns:xlink="http://www.w3.org/1999/xlink" xml:space="preserve" xmlns:serif="http://www.serif.com/" style="fill-rule:evenodd;clip-rule:evenodd;stroke-linecap:round;stroke-linejoin:round;stroke-miterlimit:1.5;">
    <g transform="matrix(1,0,0,0.990667,67.8476,27.8855)">
        <g id="Layer1">
            <ellipse cx="773.69" cy="985.336" rx="666.484" ry="914.033" style="fill:rgb(231,232,233);stroke:rgb(35,31,32);stroke-width:65.64px;"/>
        </g>
    </g>
    <g transform="matrix(1,0,0,1,41.7531,44.8149)">
        <g transform="matrix(3.24738,0,0,3.24738,113.66,87.9272)">
            <path d="M323.181,306.827C323.181,306.827 335.471,296.845 343.542,290.821C351.614,284.797 353.302,284.194 372.698,275.761C392.093,267.329 430.285,250.22 430.285,250.22C430.285,250.22 431.489,247.299 434.38,242.6C437.272,237.902 442.512,227.601 444.681,224.258C446.849,220.915 449.469,217.843 450.644,215.313C451.819,212.783 451.188,209.633 452.632,209.711C455.975,209.891 455.163,217.03 453.897,223.806C457.15,220.102 458.415,218.024 459.861,214.861C461.306,211.698 461.939,208.356 463.384,208.898C464.831,209.44 464.559,217.933 460.855,225.072C464.74,220.734 467.27,217.572 468.445,214.771C469.62,211.97 470.793,209.53 471.517,209.53C472.24,209.53 473.143,212.331 471.517,218.475C469.89,224.62 463.114,232.571 459.047,238.083C464.288,234.74 468.173,230.403 471.968,227.15C475.763,223.897 481.546,217.21 484.347,218.114C487.148,219.017 484.257,225.975 481.185,230.403C478.113,234.83 464.74,247.931 461.487,250.913C458.234,253.895 456.066,255.16 456.066,256.605C456.066,258.052 458.325,258.594 462.752,259.498C467.179,260.4 474.588,263.654 476.577,267.449C478.565,271.244 477.661,271.786 474.318,271.334C470.974,270.883 466.276,268.082 459.047,269.256C451.819,270.43 443.054,271.877 435.645,269.708C432.753,272.418 417.754,279.556 409.893,283.261C402.033,286.966 365.348,304.314 360.65,307.567C355.951,310.82 334.626,327.685 334.626,327.685L323.181,306.827Z" style="fill:rgb(253,205,160);fill-rule:nonzero;"/>
        </g>
        <g transform="matrix(3.24738,0,0,3.24738,113.66,87.9272)">
            <path d="M323.181,306.827C323.181,306.827 335.471,296.845 343.542,290.821C351.614,284.797 353.302,284.194 372.698,275.761C392.093,267.329 430.285,250.22 430.285,250.22C430.285,250.22 431.489,247.299 434.38,242.6C437.272,237.902 442.512,227.601 444.681,224.258C446.849,220.915 449.469,217.843 450.644,215.313C451.819,212.783 451.188,209.633 452.632,209.711C455.975,209.891 455.163,217.03 453.897,223.806C457.15,220.102 458.415,218.024 459.861,214.861C461.306,211.698 461.939,208.356 463.384,208.898C464.831,209.44 464.559,217.933 460.855,225.072C464.74,220.734 467.27,217.572 468.445,214.771C469.62,211.97 470.793,209.53 471.517,209.53C472.24,209.53 473.143,212.331 471.517,218.475C469.89,224.62 463.114,232.571 459.047,238.083C464.288,234.74 468.173,230.403 471.968,227.15C475.763,223.897 481.546,217.21 484.347,218.114C487.148,219.017 484.257,225.975 481.185,230.403C478.113,234.83 464.74,247.931 461.487,250.913C458.234,253.895 456.066,255.16 456.066,256.605C456.066,258.052 458.325,258.594 462.752,259.498C467.179,260.4 474.588,263.654 476.577,267.449C478.565,271.244 477.661,271.786 474.318,271.334C470.974,270.883 466.276,268.082 459.047,269.256C451.819,270.43 443.054,271.877 435.645,269.708C432.753,272.418 417.754,279.556 409.893,283.261C402.033,286.966 365.348,304.314 360.65,307.567C355.951,310.82 334.626,327.685 334.626,327.685L323.181,306.827Z" style="fill:none;stroke:rgb(3,4,4);stroke-width:2.6px;stroke-miterlimit:2;"/>
        </g>
        <g transform="matrix(3.24738,0,0,3.24738,113.66,87.9272)">
            <path d="M106.025,209.259C106.025,209.259 96.447,206.367 88.857,203.838C92.471,199.501 97.351,193.537 97.441,192.092C92.833,191.007 83.978,188.658 83.978,188.658C83.978,188.658 94.558,179.843 98.846,174.311C97.531,169.141 89.941,162.392 74.219,153.93C81.809,150.346 97.63,139.865 98.846,132.998C100.062,126.131 76.568,105.168 76.568,105.168C76.568,105.168 101.507,101.916 110.543,90.893C102.953,75.713 96.266,58.906 93.736,44.991C104.76,51.317 120.121,58.183 133.855,59.629C133.132,48.244 132.409,19.692 144.156,1.44C148.493,9.933 159.516,32.522 178.13,49.148C189.695,37.221 218.97,16.258 240.656,6.5C237.584,17.704 230.898,41.016 226.38,72.46C244.994,76.255 266.86,77.52 281.317,78.424C272.1,90.531 248.065,122.517 248.065,122.517C248.065,122.517 272.823,140.769 287.28,151.792C277.16,153.961 241.379,162.454 241.199,164.261C241.017,166.069 254.39,180.706 269.028,195.525C262.161,196.79 235.054,201.127 234.693,202.573C234.332,204.018 240.656,224.62 240.656,224.62C240.656,224.62 211.381,216.488 210.296,217.753C209.212,219.017 213.007,236.908 213.007,236.908L192.16,231.429L106.025,209.259Z" style="fill:rgb(172,225,246);fill-rule:nonzero;"/>
        </g>
        <g transform="matrix(3.24738,0,0,3.24738,113.66,87.9272)">
            <path d="M106.025,209.259C106.025,209.259 96.447,206.367 88.857,203.838C92.471,199.501 97.351,193.537 97.441,192.092C92.833,191.007 83.978,188.658 83.978,188.658C83.978,188.658 94.558,179.843 98.846,174.311C97.531,169.141 89.941,162.392 74.219,153.93C81.809,150.346 97.63,139.865 98.846,132.998C100.062,126.131 76.568,105.168 76.568,105.168C76.568,105.168 101.507,101.916 110.543,90.893C102.953,75.713 96.266,58.906 93.736,44.991C104.76,51.317 120.121,58.183 133.855,59.629C133.132,48.244 132.409,19.692 144.156,1.44C148.493,9.933 159.516,32.522 178.13,49.148C189.695,37.221 218.97,16.258 240.656,6.5C237.584,17.704 230.898,41.016 226.38,72.46C244.994,76.255 266.86,77.52 281.317,78.424C272.1,90.531 248.065,122.517 248.065,122.517C248.065,122.517 272.823,140.769 287.28,151.792C277.16,153.961 241.379,162.454 241.199,164.261C241.017,166.069 254.39,180.706 269.028,195.525C262.161,196.79 235.054,201.127 234.693,202.573C234.332,204.018 240.656,224.62 240.656,224.62C240.656,224.62 211.381,216.488 210.296,217.753C209.212,219.017 213.007,236.908 213.007,236.908L192.16,231.429L106.025,209.259Z" style="fill:none;stroke:rgb(3,4,4);stroke-width:2.6px;stroke-miterlimit:2;"/>
        </g>
        <g transform="matrix(3.24738,0,0,3.24738,113.66,87.9272)">
            <path d="M105.845,180.164C105.845,180.164 95.543,174.743 95.363,165.527C95.182,156.31 102.592,153.599 109.278,153.961C111.989,166.972 105.845,180.164 105.845,180.164Z" style="fill:rgb(232,217,196);fill-rule:nonzero;"/>
        </g>
        <g transform="matrix(3.24738,0,0,3.24738,113.66,87.9272)">
            <path d="M105.845,180.164C105.845,180.164 95.543,174.743 95.363,165.527C95.182,156.31 102.592,153.599 109.278,153.961C111.989,166.972 105.845,180.164 105.845,180.164Z" style="fill:none;stroke:rgb(3,4,4);stroke-width:2.6px;stroke-miterlimit:2;"/>
        </g>
        <g transform="matrix(3.24738,0,0,3.24738,113.66,87.9272)">
            <path d="M218.158,179.803C218.158,179.803 227.826,187.122 226.56,195.344C225.296,203.567 217.977,208.265 207.134,206.096C208.58,192.724 218.158,179.803 218.158,179.803Z" style="fill:rgb(232,217,196);fill-rule:nonzero;"/>
        </g>
        <g transform="matrix(3.24738,0,0,3.24738,113.66,87.9272)">
            <path d="M218.158,179.803C218.158,179.803 227.826,187.122 226.56,195.344C225.296,203.567 217.977,208.265 207.134,206.096C208.58,192.724 218.158,179.803 218.158,179.803Z" style="fill:none;stroke:rgb(3,4,4);stroke-width:2.6px;stroke-miterlimit:2;"/>
        </g>
        <g transform="matrix(3.24738,0,0,3.24738,113.66,87.9272)">
            <path d="M130.421,241.787C130.421,241.787 117.41,233.474 110.543,225.162C103.676,216.849 102.35,198.778 102.35,198.778C102.35,198.778 98.617,194.2 98.857,188.899C99.097,183.598 103.917,184.321 103.917,184.321C103.917,184.321 105.001,171.068 105.725,162.635C106.447,154.202 107.895,139.144 108.857,134.324C109.82,129.504 114.76,113.601 118.375,104.807C121.989,96.013 128.496,77.822 146.807,70.352C165.118,62.882 192.345,68.906 205.356,79.026C218.369,89.146 226.802,99.266 228.248,118.782C229.693,138.3 226.802,154.925 218.609,180.706C210.417,206.488 200.54,231.065 176.925,241.787C149.216,244.077 130.421,241.787 130.421,241.787Z" style="fill:rgb(232,217,196);fill-rule:nonzero;"/>
        </g>
        <g transform="matrix(3.24738,0,0,3.24738,113.66,87.9272)">
            <path d="M130.421,241.787C130.421,241.787 117.41,233.474 110.543,225.162C103.676,216.849 102.35,198.778 102.35,198.778C102.35,198.778 98.617,194.2 98.857,188.899C99.097,183.598 103.917,184.321 103.917,184.321C103.917,184.321 105.001,171.068 105.725,162.635C106.447,154.202 107.895,139.144 108.857,134.324C109.82,129.504 114.76,113.601 118.375,104.807C121.989,96.013 128.496,77.822 146.807,70.352C165.118,62.882 192.345,68.906 205.356,79.026C218.369,89.146 226.802,99.266 228.248,118.782C229.693,138.3 226.802,154.925 218.609,180.706C210.417,206.488 200.54,231.065 176.925,241.787C149.216,244.077 130.421,241.787 130.421,241.787Z" style="fill:none;stroke:rgb(3,4,4);stroke-width:2.6px;stroke-miterlimit:2;"/>
        </g>
        <g transform="matrix(3.24738,0,0,3.24738,113.66,87.9272)">
            <path d="M171.443,83.302C154.356,80.006 143.071,80.05 136.927,82.218C130.783,84.387 122.651,89.447 125.181,93.061C127.711,96.675 138.192,92.338 146.505,91.254C154.818,90.17 171.082,89.086 184.997,100.29C198.912,111.493 203.068,114.927 206.321,113.12C209.574,111.313 209.393,103.904 197.285,95.772C190.65,91.182 185.026,85.923 171.443,83.302Z" style="fill:rgb(172,225,246);fill-rule:nonzero;"/>
        </g>
        <g transform="matrix(3.24738,0,0,3.24738,113.66,87.9272)">
            <path d="M171.443,83.302C154.356,80.006 143.071,80.05 136.927,82.218C130.783,84.387 122.651,89.447 125.181,93.061C127.711,96.675 138.192,92.338 146.505,91.254C154.818,90.17 171.082,89.086 184.997,100.29C198.912,111.493 203.068,114.927 206.321,113.12C209.574,111.313 209.393,103.904 197.285,95.772C190.65,91.182 185.026,85.923 171.443,83.302Z" style="fill:none;stroke:rgb(3,4,4);stroke-width:2.6px;stroke-miterlimit:2;"/>
        </g>
        <g transform="matrix(3.24738,0,0,3.24738,113.66,87.9272)">
            <path d="M130.964,105.891C145.597,105.516 156.083,118.541 154.999,129.926C153.914,141.311 143.975,153.78 128.976,151.973C113.977,150.166 106.929,139.685 106.929,127.577C106.929,115.469 116.868,106.253 130.964,105.891Z" style="fill:white;fill-rule:nonzero;"/>
        </g>
        <g transform="matrix(3.24738,0,0,3.24738,113.66,87.9272)">
            <path d="M130.964,105.891C145.597,105.516 156.083,118.541 154.999,129.926C153.914,141.311 143.975,153.78 128.976,151.973C113.977,150.166 106.929,139.685 106.929,127.577C106.929,115.469 116.868,106.253 130.964,105.891Z" style="fill:none;stroke:rgb(3,4,4);stroke-width:2.6px;stroke-miterlimit:2;"/>
        </g>
        <g transform="matrix(3.24738,0,0,3.24738,113.66,87.9272)">
            <path d="M184.816,118.18C196.203,118.18 209.91,129.203 208.115,142.937C206.321,156.672 195.297,163.539 182.467,163.539C169.636,163.539 158.974,153.419 159.155,139.323C159.335,125.228 172.889,118.18 184.816,118.18Z" style="fill:white;fill-rule:nonzero;"/>
        </g>
        <g transform="matrix(3.24738,0,0,3.24738,113.66,87.9272)">
            <path d="M184.816,118.18C196.203,118.18 209.91,129.203 208.115,142.937C206.321,156.672 195.297,163.539 182.467,163.539C169.636,163.539 158.974,153.419 159.155,139.323C159.335,125.228 172.889,118.18 184.816,118.18Z" style="fill:none;stroke:rgb(3,4,4);stroke-width:2.6px;stroke-miterlimit:2;"/>
        </g>
        <g transform="matrix(3.24738,0,0,3.24738,113.66,87.9272)">
            <path d="M108.375,148.539C108.375,148.539 111.627,163.177 132.229,160.647" style="fill:none;stroke:rgb(3,4,4);stroke-width:2.6px;stroke-miterlimit:2;"/>
        </g>
        <g transform="matrix(3.24738,0,0,3.24738,113.66,87.9272)">
            <path d="M143.614,152.148C143.614,152.148 136.023,164.442 136.023,170.044C136.023,175.646 139.096,184.14 145.24,175.466C151.384,166.792 154.095,163.539 154.095,163.539" style="fill:none;stroke:rgb(3,4,4);stroke-width:2.6px;stroke-miterlimit:2;"/>
        </g>
        <g transform="matrix(3.24738,0,0,3.24738,113.66,87.9272)">
            <path d="M163.725,167.876C163.725,167.876 180.84,181.791 193.671,171.129" style="fill:none;stroke:rgb(3,4,4);stroke-width:2.6px;stroke-miterlimit:2;"/>
        </g>
        <g transform="matrix(3.24738,0,0,3.24738,113.66,87.9272)">
            <path d="M137.469,144.564C137.469,146.56 135.852,148.178 133.855,148.178C131.859,148.178 130.241,146.56 130.241,144.564C130.241,142.568 131.859,140.949 133.855,140.949C135.852,140.949 137.469,142.568 137.469,144.564Z" style="fill:rgb(3,4,4);fill-rule:nonzero;"/>
        </g>
        <g transform="matrix(3.24738,0,0,3.24738,113.66,87.9272)">
            <path d="M189.627,157.019C189.627,159.015 188.01,160.633 186.013,160.633C184.017,160.633 182.399,159.015 182.399,157.019C182.399,155.023 184.017,153.405 186.013,153.405C188.01,153.405 189.627,155.023 189.627,157.019Z" style="fill:rgb(3,4,4);fill-rule:nonzero;"/>
        </g>
        <g transform="matrix(3.24738,0,0,3.24738,113.66,87.9272)">
            <path d="M114.64,187.092C114.64,187.092 109.219,184.321 103.917,184.321" style="fill:none;stroke:rgb(3,4,4);stroke-width:2.6px;stroke-miterlimit:2;"/>
        </g>
        <g transform="matrix(3.24738,0,0,3.24738,113.66,87.9272)">
            <path d="M113.917,207.572C113.917,207.572 106.205,203.115 102.35,198.778" style="fill:none;stroke:rgb(3,4,4);stroke-width:2.6px;stroke-miterlimit:2;"/>
        </g>
        <g transform="matrix(3.24738,0,0,3.24738,113.66,87.9272)">
            <path d="M105.964,190.225C105.964,190.225 132.829,213.12 172.347,206.489" style="fill:none;stroke:rgb(3,4,4);stroke-width:2.6px;stroke-miterlimit:2;"/>
        </g>
        <g transform="matrix(3.24738,0,0,3.24738,113.66,87.9272)">
            <path d="M169.215,198.778C169.215,198.778 185.683,198.958 183.713,206.729C181.744,214.5 176.142,214.861 168.19,214.68" style="fill:none;stroke:rgb(3,4,4);stroke-width:2.6px;stroke-miterlimit:2;"/>
        </g>
        <g transform="matrix(3.24738,0,0,3.24738,113.66,87.9272)">
            <path d="M243.187,537.988L159.335,255.883L130.421,240.522C130.421,240.522 106.305,239.8 98.846,241.245C91.387,242.691 86.689,248.293 65.726,275.039C44.763,301.784 33.558,318.049 20.306,340.457C7.055,362.865 -3.787,383.588 3.199,394.189C10.186,404.791 22.476,401.177 27.294,397.322C32.113,393.467 82.352,342.987 82.352,342.987C82.352,342.987 81.99,361.063 82.713,401.179C83.23,429.841 85.908,466.801 85.052,501.491" style="fill:white;fill-rule:nonzero;"/>
        </g>
        <g transform="matrix(3.24738,0,0,3.24738,113.66,87.9272)">
            <path d="M243.187,537.988L159.335,255.883L130.421,240.522C130.421,240.522 106.305,239.8 98.846,241.245C91.387,242.691 86.689,248.293 65.726,275.039C44.763,301.784 33.558,318.049 20.306,340.457C7.055,362.865 -3.787,383.588 3.199,394.189C10.186,404.791 22.476,401.177 27.294,397.322C32.113,393.467 82.352,342.987 82.352,342.987C82.352,342.987 81.99,361.063 82.713,401.179C83.203,428.387 85.689,455.441 85.208,487.789" style="fill:none;stroke:rgb(3,4,4);stroke-width:2.6px;stroke-miterlimit:2;"/>
        </g>
        <g transform="matrix(3.24738,0,0,3.24738,113.66,87.9272)">
            <path d="M130.903,511.592L134.759,494.492L196.563,494.492L196.563,509.785C196.563,509.785 147.287,512.374 130.903,511.592Z" style="fill:rgb(46,36,17);fill-rule:nonzero;"/>
        </g>
        <g transform="matrix(3.24738,0,0,3.24738,113.66,87.9272)">
            <path d="M130.903,511.592L134.759,494.492L196.563,494.492L196.563,509.785C196.563,509.785 147.287,512.374 130.903,511.592Z" style="fill:none;stroke:rgb(3,4,4);stroke-width:2.6px;stroke-miterlimit:2;"/>
        </g>
        <g transform="matrix(3.24738,0,0,3.24738,113.66,87.9272)">
            <path d="M139.2,538.124L130.903,511.592C130.903,511.592 181.021,511.411 196.563,509.785C218.128,507.195 243.187,511.592 243.187,511.592L243.187,537.988" style="fill:rgb(123,95,48);fill-rule:nonzero;"/>
        </g>
        <g transform="matrix(3.24738,0,0,3.24738,113.66,87.9272)">
            <path d="M126.69,528.078L130.903,511.592C130.903,511.592 181.021,511.411 196.563,509.785C218.128,507.195 243.187,511.592 243.187,511.592L243.187,537.988" style="fill:none;stroke:rgb(3,4,4);stroke-width:2.6px;stroke-miterlimit:2;"/>
        </g>
        <g transform="matrix(3.24738,0,0,3.24738,113.66,87.9272)">
            <path d="M14.523,369.131C15.005,359.494 25.368,350.577 37.656,337.565C49.944,324.553 67.895,304.917 73.076,298.531C78.257,292.146 97.653,271.545 100.062,269.014C102.47,266.484 103.237,267.123 103.237,267.123C103.237,267.123 109.58,270.822 123.226,277.008C129.041,284.64 123.554,295.037 123.554,295.037C123.554,295.037 91.496,333.818 82.352,342.987" style="fill:none;stroke:rgb(3,4,4);stroke-width:2.6px;stroke-miterlimit:2;"/>
        </g>
        <g transform="matrix(3.24738,0,0,3.24738,113.66,87.9272)">
            <path d="M111.024,290.7C111.024,290.7 113.674,294.072 123.554,295.037" style="fill:none;stroke:rgb(3,4,4);stroke-width:2.6px;stroke-miterlimit:2;"/>
        </g>
        <g transform="matrix(3.24738,0,0,3.24738,113.66,87.9272)">
            <path d="M150.911,399.891C150.911,399.891 142.227,458.435 138.854,475.467C135.481,492.497 134.759,494.492 134.759,494.492L168.068,494.492L194.089,480.599L210.702,408.423L150.911,399.891Z" style="fill:rgb(172,225,246);fill-rule:nonzero;"/>
        </g>
        <g transform="matrix(3.24738,0,0,3.24738,113.66,87.9272)">
            <path d="M150.911,399.891C150.911,399.891 142.227,458.435 138.854,475.467C135.481,492.497 134.759,494.492 134.759,494.492L168.068,494.492L194.089,480.599L210.702,408.423L150.911,399.891Z" style="fill:none;stroke:rgb(3,4,4);stroke-width:2.6px;stroke-miterlimit:2;"/>
        </g>
        <g transform="matrix(3.24738,0,0,3.24738,113.66,87.9272)">
            <path d="M118.856,303.11L117.289,309.134L124.044,316.602L124.639,348.889L117.289,354.191L135.964,428.644" style="fill:none;stroke:rgb(3,4,4);stroke-width:2.6px;stroke-miterlimit:2;"/>
        </g>
        <g transform="matrix(3.24738,0,0,3.24738,113.66,87.9272)">
            <path d="M259.208,263.72C259.208,263.72 245.596,253.354 236.199,248.776C226.802,244.198 221.748,243.488 207.748,242.488C199.923,241.929 190.748,241.988 179.817,243.474C168.613,247.209 139.219,274.194 135.964,280.822C132.71,287.449 128.166,295.406 125.122,304.917C122.078,314.428 119.579,321.783 120.543,338.288C121.507,354.794 124.458,371.189 140.18,389.165C155.902,407.139 171.805,414.097 175.78,416.446C179.756,418.796 180.908,419.721 183.269,418.897C185.539,418.073 259.208,263.72 259.208,263.72Z" style="fill:rgb(142,72,31);fill-rule:nonzero;"/>
        </g>
        <g transform="matrix(3.24738,0,0,3.24738,113.66,87.9272)">
            <path d="M259.208,263.72C259.208,263.72 245.596,253.354 236.199,248.776C226.802,244.198 221.748,243.488 207.748,242.488C199.923,241.929 190.748,241.988 179.817,243.474C168.613,247.209 139.219,274.194 135.964,280.822C132.71,287.449 128.166,295.406 125.122,304.917C122.078,314.428 119.579,321.783 120.543,338.288C121.507,354.794 124.458,371.189 140.18,389.165C155.902,407.139 171.805,414.097 175.78,416.446C179.756,418.796 180.908,419.721 183.269,418.897C185.539,418.073 259.208,263.72 259.208,263.72Z" style="fill:none;stroke:rgb(3,4,4);stroke-width:2.6px;stroke-miterlimit:2;"/>
        </g>
        <g transform="matrix(3.24738,0,0,3.24738,113.66,87.9272)">
            <path d="M304.99,312.025L315.953,302.145C315.953,302.145 334.265,304.514 337.879,334.774C321.977,344.794 309.207,353.226 309.207,353.226L301.978,318.922L304.99,312.025Z" style="fill:rgb(247,240,111);fill-rule:nonzero;"/>
        </g>
        <g transform="matrix(3.24738,0,0,3.24738,113.66,87.9272)">
            <path d="M304.99,312.025L315.953,302.145C315.953,302.145 334.265,304.514 337.879,334.774C321.977,344.794 309.207,353.226 309.207,353.226L301.978,318.922L304.99,312.025Z" style="fill:none;stroke:rgb(3,4,4);stroke-width:2.6px;stroke-miterlimit:2;"/>
        </g>
        <g transform="matrix(3.24738,0,0,3.24738,113.66,87.9272)">
            <path d="M430.465,252.57C430.465,252.57 429.939,250.994 430.285,250.22" style="fill:none;stroke:rgb(3,4,4);stroke-width:2.6px;stroke-miterlimit:2;"/>
        </g>
        <g transform="matrix(3.24738,0,0,3.24738,113.66,87.9272)">
            <path d="M294.027,296.724C294.027,296.724 299.45,296.844 303.304,301.061C307.159,305.278 307.198,313.285 305.914,316.931C297.52,311.181 294.027,296.724 294.027,296.724Z" style="fill:rgb(253,205,160);fill-rule:nonzero;"/>
        </g>
        <g transform="matrix(3.24738,0,0,3.24738,113.66,87.9272)">
            <path d="M294.027,296.724C294.027,296.724 299.45,296.844 303.304,301.061C307.159,305.278 307.198,313.285 305.914,316.931C297.52,311.181 294.027,296.724 294.027,296.724Z" style="fill:none;stroke:rgb(3,4,4);stroke-width:2.6px;stroke-miterlimit:2;"/>
        </g>
        <g transform="matrix(3.24738,0,0,3.24738,113.66,87.9272)">
            <path d="M433.838,267.931C433.838,267.931 434.62,269.075 435.645,269.708" style="fill:none;stroke:rgb(3,4,4);stroke-width:2.6px;stroke-miterlimit:2;"/>
        </g>
        <g transform="matrix(3.24738,0,0,3.24738,113.66,87.9272)">
            <path d="M445.164,232.331C445.164,232.331 452.17,225.852 453.897,223.806" style="fill:none;stroke:rgb(3,4,4);stroke-width:2.6px;stroke-miterlimit:2;"/>
        </g>
        <g transform="matrix(3.24738,0,0,3.24738,113.66,87.9272)">
            <path d="M449.018,236.427C449.018,236.427 454.943,232.344 460.855,225.072" style="fill:none;stroke:rgb(3,4,4);stroke-width:2.6px;stroke-miterlimit:2;"/>
        </g>
        <g transform="matrix(3.24738,0,0,3.24738,113.66,87.9272)">
            <path d="M453.897,241.968C453.897,241.968 457.668,239.918 459.047,238.083" style="fill:none;stroke:rgb(3,4,4);stroke-width:2.6px;stroke-miterlimit:2;"/>
        </g>
        <g transform="matrix(3.24738,0,0,3.24738,113.66,87.9272)">
            <path d="M330.218,504.553L306.769,423.234L211.381,407.681L196.563,423.838L168.552,474.004C168.552,474.004 167.287,481.774 173.07,485.66C178.853,489.545 207.405,480.599 207.405,480.599C207.405,480.599 215.241,466.083 217.283,461.895C219.328,466.414 222.224,485.93 224.392,495.87C226.56,505.809 232.164,529.869 236.5,537.988" style="fill:rgb(247,240,111);fill-rule:nonzero;"/>
        </g>
        <g transform="matrix(3.24738,0,0,3.24738,113.66,87.9272)">
            <path d="M329.008,500.175L306.769,423.234L211.381,407.681L196.563,423.838L168.552,474.004C168.552,474.004 167.287,481.774 173.07,485.66C178.853,489.545 207.405,480.599 207.405,480.599C207.405,480.599 215.241,466.083 217.283,461.895C219.328,466.414 222.224,485.93 224.392,495.87C226.56,505.809 232.164,529.869 236.5,537.988" style="fill:none;stroke:rgb(3,4,4);stroke-width:2.6px;stroke-miterlimit:2;"/>
        </g>
        <g transform="matrix(3.24738,0,0,3.24738,113.66,87.9272)">
            <path d="M226.832,439.248C226.832,439.248 222.208,452.435 217.283,461.895" style="fill:none;stroke:rgb(3,4,4);stroke-width:2.6px;stroke-miterlimit:2;"/>
        </g>
        <g transform="matrix(3.24738,0,0,3.24738,113.66,87.9272)">
            <path d="M321.014,343.135C321.014,343.135 332.82,346.722 337.879,355.878C342.94,365.034 338.121,375.224 329.447,389.165C320.773,403.105 286.075,455.39 267.041,474.184C264.149,478.04 254.029,478.341 244.27,472.196C234.512,466.052 227.464,461.534 227.826,453.583C232.886,447.801 254.63,425.572 259.208,420.874C263.788,416.176 309.507,343.135 309.507,343.135L321.014,343.135Z" style="fill:white;fill-rule:nonzero;"/>
        </g>
        <g transform="matrix(3.24738,0,0,3.24738,113.66,87.9272)">
            <path d="M321.014,343.135C321.014,343.135 332.82,346.722 337.879,355.878C342.94,365.034 338.121,375.224 329.447,389.165C320.773,403.105 286.075,455.39 267.041,474.184C264.149,478.04 254.029,478.341 244.27,472.196C234.512,466.052 227.464,461.534 227.826,453.583C232.886,447.801 254.63,425.572 259.208,420.874C263.788,416.176 309.507,343.135 309.507,343.135L321.014,343.135Z" style="fill:none;stroke:rgb(3,4,4);stroke-width:2.6px;stroke-miterlimit:2;"/>
        </g>
        <g transform="matrix(3.24738,0,0,3.24738,113.66,87.9272)">
            <path d="M194.089,479.62C194.089,479.62 188.635,473.897 178.381,473.177C175.484,472.972 172.202,473.168 168.552,474.004" style="fill:none;stroke:rgb(3,4,4);stroke-width:2.6px;stroke-miterlimit:2;"/>
        </g>
        <g transform="matrix(3.24738,0,0,3.24738,113.66,87.9272)">
            <path d="M159.457,537.988C159.457,537.988 152.176,531.662 153.914,525.868C156.083,518.639 178.381,473.177 178.381,473.177C178.381,473.177 189.334,473.762 195.117,480.599C194.877,485.51 194.089,491.654 194.089,491.654C194.089,491.654 182.588,511.712 177.89,524.333C181.504,529.001 190.057,537.988 190.057,537.988" style="fill:rgb(253,205,160);fill-rule:nonzero;"/>
        </g>
        <g transform="matrix(3.24738,0,0,3.24738,113.66,87.9272)">
            <path d="M159.457,537.988C159.457,537.988 152.176,531.662 153.914,525.868C156.083,518.639 178.381,473.177 178.381,473.177C178.381,473.177 189.334,473.762 195.117,480.599C194.877,485.51 194.089,491.654 194.089,491.654C194.089,491.654 182.588,511.712 177.89,524.333C181.504,529.001 190.057,537.988 190.057,537.988" style="fill:none;stroke:rgb(3,4,4);stroke-width:2.6px;stroke-miterlimit:2;"/>
        </g>
        <g transform="matrix(3.24738,0,0,3.24738,113.66,87.9272)">
            <path d="M170.901,517.195C170.901,517.195 173.764,520.808 177.89,524.333" style="fill:none;stroke:rgb(3,4,4);stroke-width:2.6px;stroke-miterlimit:2;"/>
        </g>
        <g transform="matrix(3.24738,0,0,3.24738,113.66,87.9272)">
            <path d="M179.214,405.875C179.214,405.875 177.226,417.079 187.708,421.958C198.189,426.838 204.152,420.874 204.152,420.874C204.152,420.874 220.236,428.283 241.921,427.741C263.607,427.199 300.292,398.827 307.339,376.238C314.387,353.648 316.194,325.516 292.34,292.869C268.486,260.22 245.355,254.437 209.212,260.762C173.07,267.088 157.045,306.206 153.673,318.091C150.3,329.975 143.794,378.045 179.214,405.875Z" style="fill:rgb(253,205,160);fill-rule:nonzero;"/>
        </g>
        <g transform="matrix(3.24738,0,0,3.24738,113.66,87.9272)">
            <path d="M179.214,405.875C179.214,405.875 177.226,417.079 187.708,421.958C198.189,426.838 204.152,420.874 204.152,420.874C204.152,420.874 220.236,428.283 241.921,427.741C263.607,427.199 300.292,398.827 307.339,376.238C314.387,353.648 316.194,325.516 292.34,292.869C268.486,260.22 245.355,254.437 209.212,260.762C173.07,267.088 157.045,306.206 153.673,318.091C150.3,329.975 143.794,378.045 179.214,405.875Z" style="fill:none;stroke:rgb(3,4,4);stroke-width:2.6px;stroke-miterlimit:2;"/>
        </g>
        <g transform="matrix(3.24738,0,0,3.24738,113.66,87.9272)">
            <path d="M111.548,260.135L109.097,260.135L101.146,269.617C101.146,269.617 99.94,283.23 111.024,290.7C117.169,283.833 124.639,275.417 124.639,275.417C124.639,275.417 111.869,272.703 110.423,261.402L111.548,260.135Z" style="fill:rgb(172,225,246);fill-rule:nonzero;"/>
        </g>
        <g transform="matrix(3.24738,0,0,3.24738,113.66,87.9272)">
            <path d="M111.548,260.135L109.097,260.135L101.146,269.617C101.146,269.617 99.94,283.23 111.024,290.7C117.169,283.833 124.639,275.417 124.639,275.417C124.639,275.417 111.869,272.703 110.423,261.402L111.548,260.135Z" style="fill:none;stroke:rgb(3,4,4);stroke-width:2.6px;stroke-miterlimit:2;"/>
        </g>
        <g transform="matrix(3.24738,0,0,3.24738,113.66,87.9272)">
            <path d="M218.128,312.988C231.119,312.202 246.319,327.019 244.874,343.135C243.427,359.251 232.103,369.371 218.128,370.094C204.152,370.816 190.419,358.528 191.624,338.288C192.828,318.049 210.177,313.469 218.128,312.988Z" style="fill:white;fill-rule:nonzero;"/>
        </g>
        <g transform="matrix(3.24738,0,0,3.24738,113.66,87.9272)">
            <path d="M218.128,312.988C231.119,312.202 246.319,327.019 244.874,343.135C243.427,359.251 232.103,369.371 218.128,370.094C204.152,370.816 190.419,358.528 191.624,338.288C192.828,318.049 210.177,313.469 218.128,312.988Z" style="fill:none;stroke:rgb(3,4,4);stroke-width:2.6px;stroke-miterlimit:2;"/>
        </g>
        <g transform="matrix(3.24738,0,0,3.24738,113.66,87.9272)">
            <path d="M267.763,262.631C280.053,262.799 292.582,273.471 293.304,286.243C294.027,299.014 283.666,315.638 267.763,315.157C251.86,314.676 240.054,301.913 240.537,288.897C241.017,275.882 250.173,262.388 267.763,262.631Z" style="fill:white;fill-rule:nonzero;"/>
        </g>
        <g transform="matrix(3.24738,0,0,3.24738,113.66,87.9272)">
            <path d="M267.763,262.631C280.053,262.799 292.582,273.471 293.304,286.243C294.027,299.014 283.666,315.638 267.763,315.157C251.86,314.676 240.054,301.913 240.537,288.897C241.017,275.882 250.173,262.388 267.763,262.631Z" style="fill:none;stroke:rgb(3,4,4);stroke-width:2.6px;stroke-miterlimit:2;"/>
        </g>
        <g transform="matrix(3.24738,0,0,3.24738,113.66,87.9272)">
            <path d="M200.538,299.977C200.538,299.977 201.02,317.797 182.467,333.705" style="fill:none;stroke:rgb(3,4,4);stroke-width:2.6px;stroke-miterlimit:2;"/>
        </g>
        <g transform="matrix(3.24738,0,0,3.24738,113.66,87.9272)">
            <path d="M228.605,268.413C228.605,268.413 242.654,268.549 248.824,260.288" style="fill:none;stroke:rgb(3,4,4);stroke-width:2.6px;stroke-miterlimit:2;"/>
        </g>
        <g transform="matrix(3.24738,0,0,3.24738,113.66,87.9272)">
            <path d="M258.726,327.987C258.726,327.987 266.499,328.349 271.197,329.975C275.895,331.601 272.1,342.083 259.631,341.541" style="fill:none;stroke:rgb(3,4,4);stroke-width:2.6px;stroke-miterlimit:2;"/>
        </g>
        <g transform="matrix(3.24738,0,0,3.24738,113.66,87.9272)">
            <path d="M279.509,354.552C285.569,347.799 291.798,337.023 294.508,337.385C297.219,337.746 299.93,345.336 294.508,353.287C289.087,361.239 280.509,371.177 273.142,374.43C265.775,377.683 262.161,376.419 261.077,372.624C259.993,368.829 262.847,365.757 266.931,364.13C271.016,362.504 275.922,358.551 279.509,354.552Z" style="fill:rgb(110,13,15);fill-rule:nonzero;"/>
        </g>
        <g transform="matrix(3.24738,0,0,3.24738,113.66,87.9272)">
            <path d="M279.509,354.552C285.569,347.799 291.798,337.023 294.508,337.385C297.219,337.746 299.93,345.336 294.508,353.287C289.087,361.239 280.509,371.177 273.142,374.43C265.775,377.683 262.161,376.419 261.077,372.624C259.993,368.829 262.847,365.757 266.931,364.13C271.016,362.504 275.922,358.551 279.509,354.552Z" style="fill:none;stroke:rgb(3,4,4);stroke-width:2.6px;stroke-miterlimit:2;"/>
        </g>
        <g transform="matrix(3.24738,0,0,3.24738,113.66,87.9272)">
            <path d="M163.311,285.641C163.311,285.641 151.643,289.254 150.911,286.966C150.18,284.677 160.901,281.666 160.901,281.666C160.901,281.666 151.469,278.117 152.83,276.605C154.191,275.095 160.418,273.474 169.937,276.605C173.673,270.943 185.6,257.088 187.407,254.076C187.768,258.535 188.25,261.485 188.25,261.485C188.25,261.485 192.467,257.449 195.72,256.244C194.875,262.51 192.444,266.562 192.444,266.562" style="fill:none;stroke:rgb(3,4,4);stroke-width:2.6px;stroke-miterlimit:2;"/>
        </g>
        <g transform="matrix(3.24738,0,0,3.24738,113.66,87.9272)">
            <path d="M257.756,275.359C257.756,277.09 256.354,278.492 254.624,278.492C252.892,278.492 251.491,277.09 251.491,275.359C251.491,273.629 252.892,272.226 254.624,272.226C256.354,272.226 257.756,273.629 257.756,275.359Z" style="fill:rgb(3,4,4);fill-rule:nonzero;"/>
        </g>
        <g transform="matrix(3.24738,0,0,3.24738,113.66,87.9272)">
            <path d="M212.266,322.055C212.266,323.786 210.864,325.188 209.133,325.188C207.402,325.188 206,323.786 206,322.055C206,320.324 207.402,318.922 209.133,318.922C210.864,318.922 212.266,320.324 212.266,322.055Z" style="fill:rgb(3,4,4);fill-rule:nonzero;"/>
        </g>
        <g transform="matrix(3.24738,0,0,3.24738,113.66,87.9272)">
            <path d="M110.423,261.402C110.423,261.402 122.095,248.118 129.871,241.429C137.65,234.74 146.505,233.836 158.432,233.836C170.359,233.836 179.395,235.281 181.744,243.594C184.093,251.907 182.467,265.641 177.949,269.617C173.431,273.594 169.094,274.857 166.022,269.617C161.504,272.689 154.275,277.388 148.673,273.955C146.144,277.027 139.457,276.484 137.831,273.594C132.409,274.135 129.699,273.773 126.084,272.509C125,273.594 123.916,274.677 123.916,274.677C123.916,274.677 111.93,272.885 110.423,261.402Z" style="fill:rgb(232,217,196);fill-rule:nonzero;"/>
        </g>
        <g transform="matrix(3.24738,0,0,3.24738,113.66,87.9272)">
            <path d="M110.423,261.402C110.423,261.402 122.095,248.118 129.871,241.429C137.65,234.74 146.505,233.836 158.432,233.836C170.359,233.836 179.395,235.281 181.744,243.594C184.093,251.907 182.467,265.641 177.949,269.617C173.431,273.594 169.094,274.857 166.022,269.617C161.504,272.689 154.275,277.388 148.673,273.955C146.144,277.027 139.457,276.484 137.831,273.594C132.409,274.135 129.699,273.773 126.084,272.509C125,273.594 123.916,274.677 123.916,274.677C123.916,274.677 111.93,272.885 110.423,261.402Z" style="fill:none;stroke:rgb(3,4,4);stroke-width:2.6px;stroke-miterlimit:2;"/>
        </g>
        <g transform="matrix(3.24738,0,0,3.24738,113.66,87.9272)">
            <path d="M125.361,254.076C125.361,254.076 125.904,258.607 130.602,261.402" style="fill:none;stroke:rgb(3,4,4);stroke-width:2.6px;stroke-miterlimit:2;"/>
        </g>
        <g transform="matrix(3.24738,0,0,3.24738,113.66,87.9272)">
            <path d="M126.084,272.509C126.084,272.509 111.447,259.585 127.982,259.269" style="fill:none;stroke:rgb(3,4,4);stroke-width:2.6px;stroke-miterlimit:2;"/>
        </g>
        <g transform="matrix(3.24738,0,0,3.24738,113.66,87.9272)">
            <path d="M143.614,249.377C143.614,249.377 146.324,268.894 137.831,273.594" style="fill:none;stroke:rgb(3,4,4);stroke-width:2.6px;stroke-miterlimit:2;"/>
        </g>
        <g transform="matrix(3.24738,0,0,3.24738,113.66,87.9272)">
            <path d="M158.071,247.57C158.071,247.57 162.227,269.075 148.673,273.955" style="fill:none;stroke:rgb(3,4,4);stroke-width:2.6px;stroke-miterlimit:2;"/>
        </g>
        <g transform="matrix(3.24738,0,0,3.24738,113.66,87.9272)">
            <path d="M170.901,247.57C170.901,247.57 171.985,264.919 166.022,269.617" style="fill:none;stroke:rgb(3,4,4);stroke-width:2.6px;stroke-miterlimit:2;"/>
        </g>
        <g transform="matrix(3.24738,0,0,3.24738,113.66,87.9272)">
            <path d="M254.932,461.895C254.932,461.895 251.377,450.931 233.91,453.583C228.996,459.233 222.205,467.394 222.205,467.394L239.814,478.521L254.932,461.895Z" style="fill:rgb(172,225,246);fill-rule:nonzero;"/>
        </g>
        <g transform="matrix(3.24738,0,0,3.24738,113.66,87.9272)">
            <path d="M254.932,461.895C254.932,461.895 251.377,450.931 233.91,453.583C228.996,459.233 222.205,467.394 222.205,467.394L239.814,478.521L254.932,461.895Z" style="fill:none;stroke:rgb(3,4,4);stroke-width:2.6px;stroke-miterlimit:2;"/>
        </g>
        <g transform="matrix(3.24738,0,0,3.24738,113.66,87.9272)">
            <path d="M193.31,490.719C193.31,490.719 190.147,482.858 195.117,478.521C200.086,474.184 206.321,472.829 212.013,469.576C217.707,466.323 226.56,463.884 231.44,464.878C236.32,465.872 243.187,469.215 242.283,481.141C241.379,493.069 236.5,498.219 236.5,498.219C236.5,498.219 238.69,503.804 237.313,508.7C235.937,513.596 232.164,524.151 225.296,524.333C222.209,524.153 218.7,521.531 218.7,521.531C218.7,521.531 212.917,526.681 208.67,520.448C204.785,521.712 200.448,518.82 199.363,514.755C196.833,515.567 192.863,513.85 192.318,506.802C191.773,499.755 193.31,490.719 193.31,490.719Z" style="fill:rgb(232,217,196);fill-rule:nonzero;"/>
        </g>
        <g transform="matrix(3.24738,0,0,3.24738,113.66,87.9272)">
            <path d="M193.31,490.719C193.31,490.719 190.147,482.858 195.117,478.521C200.086,474.184 206.321,472.829 212.013,469.576C217.707,466.323 226.56,463.884 231.44,464.878C236.32,465.872 243.187,469.215 242.283,481.141C241.379,493.069 236.5,498.219 236.5,498.219C236.5,498.219 238.69,503.804 237.313,508.7C235.937,513.596 232.164,524.151 225.296,524.333C222.209,524.153 218.7,521.531 218.7,521.531C218.7,521.531 212.917,526.681 208.67,520.448C204.785,521.712 200.448,518.82 199.363,514.755C196.833,515.567 192.863,513.85 192.318,506.802C191.773,499.755 193.31,490.719 193.31,490.719Z" style="fill:none;stroke:rgb(3,4,4);stroke-width:2.6px;stroke-miterlimit:2;"/>
        </g>
        <g transform="matrix(3.24738,0,0,3.24738,113.66,87.9272)">
            <path d="M265.619,475.467C265.619,475.467 261.377,467.678 254.932,461.895" style="fill:none;stroke:rgb(3,4,4);stroke-width:2.6px;stroke-miterlimit:2;"/>
        </g>
        <g transform="matrix(3.24738,0,0,3.24738,113.66,87.9272)">
            <path d="M233.91,453.583C233.91,453.583 232.343,452.98 227.826,453.583" style="fill:none;stroke:rgb(3,4,4);stroke-width:2.6px;stroke-miterlimit:2;"/>
        </g>
        <g transform="matrix(3.24738,0,0,3.24738,113.66,87.9272)">
            <path d="M199.815,480.599C199.815,480.599 194.755,485.93 193.31,490.719" style="fill:none;stroke:rgb(3,4,4);stroke-width:2.6px;stroke-miterlimit:2;"/>
        </g>
        <g transform="matrix(3.24738,0,0,3.24738,113.66,87.9272)">
            <path d="M198.821,493.611C198.821,493.611 196.833,503.64 199.363,514.755" style="fill:none;stroke:rgb(3,4,4);stroke-width:2.6px;stroke-miterlimit:2;"/>
        </g>
        <g transform="matrix(3.24738,0,0,3.24738,113.66,87.9272)">
            <path d="M204.514,499.123C204.514,499.123 204.423,513.039 208.67,520.448" style="fill:none;stroke:rgb(3,4,4);stroke-width:2.6px;stroke-miterlimit:2;"/>
        </g>
        <g transform="matrix(3.24738,0,0,3.24738,113.66,87.9272)">
            <path d="M213.64,501.652C213.64,501.652 214.182,515.748 218.7,521.531" style="fill:none;stroke:rgb(3,4,4);stroke-width:2.6px;stroke-miterlimit:2;"/>
        </g>
        <g transform="matrix(3.24738,0,0,3.24738,113.66,87.9272)">
            <path d="M226.832,512.405C226.832,512.405 226.832,509.152 229.271,506.441C231.71,503.73 234.367,501.452 236.5,498.219" style="fill:none;stroke:rgb(3,4,4);stroke-width:2.6px;stroke-miterlimit:2;"/>
        </g>
        <g transform="matrix(3.24738,0,0,3.24738,113.66,87.9272)">
            <path d="M182.467,398.165C182.467,398.165 180.178,402.622 179.214,405.875" style="fill:none;stroke:rgb(3,4,4);stroke-width:2.6px;stroke-miterlimit:2;"/>
        </g>
        <g transform="matrix(3.24738,0,0,3.24738,113.66,87.9272)">
            <path d="M207.356,417.442C207.356,417.442 206.086,419.515 204.152,420.874" style="fill:none;stroke:rgb(3,4,4);stroke-width:2.6px;stroke-miterlimit:2;"/>
        </g>
    </g>
    <g transform="matrix(1,0,0,0.990667,67.8476,27.8855)">
        <path d="M1434.68,1103.09C1392.51,1552.02 1112.44,1899.37 773.69,1899.37C530.15,1899.37 316.944,1719.84 200.66,1452.1" style="fill:none;stroke:rgb(35,31,32);stroke-width:65.64px;"/>
    </g>
</svg>
