<!DOCTYPE svg PUBLIC "-//W3C//DTD SVG 20010904//EN" "http://www.w3.org/TR/2001/REC-SVG-20010904/DTD/svg10.dtd">
<svg version="1.0" xmlns="http://www.w3.org/2000/svg" width="761px" height="255px" viewBox="0 0 7610 2550" preserveAspectRatio="xMidYMid meet">
<g id="layer101" fill="#000000" stroke="none">
<path d="M5939 2536 c-85 -30 -139 -84 -167 -165 -27 -78 -3 -187 58 -262 37 -46 38 -64 5 -85 -14 -9 -32 -32 -40 -49 -13 -33 -14 -33 -93 -36 -73 -4 -85 -7 -133 -41 -51 -36 -53 -36 -92 -22 -22 8 -51 14 -66 14 -14 0 -37 3 -49 7 -22 5 -23 10 -18 52 19 161 19 185 -4 239 -25 57 -74 106 -129 129 -49 21 -145 20 -208 -1 -71 -24 -149 -94 -165 -149 -6 -23 -24 -64 -39 -92 -15 -27 -32 -67 -38 -87 -7 -20 -18 -41 -26 -48 -7 -6 -51 -12 -97 -13 -90 -3 -122 -15 -183 -69 -20 -17 -39 -28 -42 -24 -4 3 -10 28 -14 54 -10 68 -48 211 -65 244 -25 48 -87 110 -129 129 -57 26 -156 25 -212 -2 -90 -43 -143 -139 -143 -258 0 -89 -8 -100 -55 -78 -51 24 -136 22 -220 -7 -125 -42 -169 -54 -222 -61 -46 -5 -58 -2 -92 20 -48 32 -132 43 -194 25 -38 -10 -49 -9 -76 5 -18 9 -57 18 -88 20 -30 2 -58 6 -60 9 -3 3 -6 31 -7 63 -3 73 -29 125 -93 184 -71 66 -134 94 -213 94 -129 -1 -222 -86 -245 -223 -4 -25 -14 -46 -22 -49 -9 -4 -42 8 -73 25 -104 58 -207 38 -288 -53 -46 -52 -50 -53 -111 -6 l-25 19 27 58 c91 205 57 389 -88 459 -63 31 -149 36 -206 12 -65 -27 -186 -146 -257 -252 -87 -131 -178 -232 -244 -272 -90 -54 -88 -55 -81 26 5 55 1 85 -15 138 -11 37 -26 91 -32 118 -31 140 -167 227 -304 196 -129 -29 -210 -142 -253 -351 -8 -41 -28 -106 -44 -145 -30 -74 -45 -183 -58 -405 -6 -93 -13 -133 -39 -207 -23 -66 -35 -123 -42 -197 -7 -85 -15 -116 -39 -165 -21 -40 -36 -91 -45 -153 -8 -51 -21 -120 -30 -153 -9 -32 -16 -73 -16 -90 0 -49 25 -131 51 -170 46 -68 203 -151 327 -173 39 -7 84 -24 120 -46 75 -46 134 -60 235 -54 71 4 93 10 162 45 44 22 105 46 136 52 77 16 204 90 260 151 37 41 56 53 102 65 102 26 162 80 212 187 18 38 25 70 25 114 0 79 9 86 73 62 29 -11 81 -21 116 -23 73 -3 81 -10 81 -78 0 -102 75 -192 189 -227 164 -51 292 -9 352 117 17 35 36 66 43 69 8 3 33 -5 57 -18 60 -31 175 -32 235 -1 68 36 124 111 124 167 0 41 18 47 74 24 38 -15 65 -19 107 -15 70 6 113 28 166 86 l42 45 38 -18 c21 -10 62 -20 91 -23 48 -5 57 -10 89 -50 50 -61 121 -96 198 -97 85 -1 110 8 172 67 67 63 73 58 92 -65 32 -206 84 -303 189 -350 32 -15 52 -34 83 -83 45 -72 105 -130 155 -151 77 -32 167 -14 253 50 19 14 37 23 42 21 4 -3 31 -40 59 -83 102 -151 153 -186 265 -186 53 0 80 5 111 21 94 50 153 164 139 267 -3 28 -22 87 -41 131 -20 43 -38 100 -41 126 -5 43 23 235 36 250 3 4 33 -2 66 -13 46 -15 77 -18 131 -15 69 5 72 4 115 -30 24 -19 59 -41 78 -49 44 -18 142 -18 188 1 20 8 79 20 131 26 52 6 106 15 120 20 13 5 26 8 27 7 1 -2 12 -22 23 -44 50 -98 169 -163 276 -150 49 7 52 6 86 -30 50 -52 102 -74 179 -74 116 0 186 52 247 185 18 39 42 104 53 144 11 39 35 97 52 128 18 32 35 73 38 92 8 45 22 48 63 12 57 -50 186 -101 255 -101 206 1 322 224 203 389 -33 44 -165 158 -258 220 -35 23 -87 67 -117 97 -30 30 -80 70 -112 90 -32 20 -86 62 -119 93 -34 31 -84 75 -112 98 -27 24 -81 89 -120 145 -45 67 -108 140 -178 209 -99 95 -117 108 -193 139 -46 18 -112 53 -148 77 -103 71 -174 88 -254 59z"/>
</g>
<g id="layer102" fill="#1d5a5c" stroke="none">
<path d="M5967 2359 c-28 -16 -39 -57 -27 -95 13 -39 126 -146 185 -176 63 -32 72 -42 44 -48 -32 -8 -69 -65 -69 -108 0 -33 -1 -34 -17 -20 -47 41 -116 25 -145 -33 -24 -49 -48 -133 -48 -168 0 -28 -54 -121 -71 -121 -11 0 -19 28 -19 66 0 96 -82 146 -147 90 -26 -23 -27 -27 -28 -124 0 -66 -3 -95 -9 -84 -5 9 -33 45 -63 79 -60 70 -112 98 -194 108 -53 6 -59 4 -91 -24 -19 -16 -55 -35 -81 -42 -29 -7 -55 -21 -67 -37 l-20 -25 0 46 c0 28 9 63 21 87 18 33 20 50 14 100 -6 50 -4 65 14 93 22 36 45 159 36 194 -3 12 -19 29 -35 38 -27 14 -33 13 -82 -6 -63 -24 -78 -41 -78 -88 0 -27 -8 -43 -29 -63 -17 -16 -32 -43 -36 -65 -4 -21 -15 -52 -26 -69 -19 -32 -23 -79 -10 -124 6 -18 2 -33 -11 -53 -34 -48 -58 -133 -58 -204 0 -70 -22 -175 -32 -158 -3 6 -9 42 -13 80 -4 39 -16 90 -27 115 -11 25 -23 80 -27 123 -8 86 -19 105 -72 113 -26 4 -41 0 -63 -17 -31 -24 -56 -74 -56 -112 0 -15 -9 -29 -26 -37 -38 -21 -50 -54 -58 -151 -3 -51 -14 -104 -25 -130 -11 -24 -23 -67 -27 -96 -3 -29 -14 -59 -24 -68 -16 -14 -18 -12 -23 37 -4 29 -14 96 -23 148 -9 52 -18 134 -19 183 -2 79 -5 90 -31 123 -50 62 -53 73 -41 142 8 45 8 73 0 100 -6 20 -20 68 -31 106 -26 89 -49 120 -93 124 -27 2 -40 -3 -59 -23 -22 -23 -25 -37 -31 -148 -4 -67 -5 -151 -2 -187 3 -45 0 -78 -11 -109 -18 -50 -21 -117 -5 -158 5 -15 26 -50 44 -78 38 -56 41 -74 30 -225 -6 -88 -4 -102 23 -190 16 -52 35 -122 41 -155 7 -33 16 -82 22 -109 19 -98 68 -142 130 -119 25 10 30 8 44 -13 8 -13 15 -33 15 -44 0 -29 43 -110 79 -149 28 -30 36 -33 69 -28 75 13 90 72 47 195 -30 85 -31 109 -7 135 11 12 20 45 24 91 14 132 20 165 33 176 10 9 15 6 21 -12 4 -13 18 -38 32 -56 16 -21 36 -78 58 -165 28 -108 41 -143 75 -190 28 -41 43 -74 49 -114 6 -33 21 -72 37 -96 16 -22 39 -58 53 -81 15 -23 42 -49 62 -59 34 -17 39 -17 67 -3 56 30 57 76 2 212 -52 130 -60 200 -32 314 12 47 21 113 21 146 0 34 6 79 14 100 7 22 17 73 21 113 4 41 13 87 19 103 l12 28 12 -34 c7 -19 30 -50 51 -68 20 -19 52 -53 71 -76 35 -45 100 -82 141 -82 87 0 181 67 208 148 l17 53 2 -73 c6 -162 7 -170 36 -195 36 -30 80 -30 111 2 14 13 25 29 25 34 0 6 17 2 39 -9 32 -17 43 -19 67 -9 16 6 44 11 61 10 68 -3 126 49 121 111 -1 24 5 44 20 63 12 15 25 46 29 68 l6 39 13 -38 c8 -22 14 -48 14 -60 0 -48 43 -185 80 -256 48 -91 87 -117 145 -98 59 20 72 78 34 152 -19 37 -20 45 -8 80 11 33 10 47 -3 91 -9 29 -23 77 -30 108 l-14 56 45 12 c46 13 150 53 184 72 14 8 17 5 17 -21 0 -17 -7 -47 -16 -68 -10 -22 -21 -88 -26 -162 -12 -146 -11 -196 2 -221 6 -10 10 -52 10 -93 0 -63 4 -80 20 -96 30 -30 73 -26 103 10 24 28 87 177 87 206 0 24 33 98 59 133 21 28 26 48 31 125 6 91 27 162 53 171 14 6 113 -30 166 -60 18 -11 52 -35 74 -53 43 -36 158 -92 187 -92 23 0 66 35 73 59 14 53 -114 173 -300 282 -24 14 -54 42 -66 62 -27 44 -50 62 -131 102 -42 21 -69 42 -88 71 -15 22 -55 60 -90 84 -85 58 -108 80 -108 101 0 10 -20 41 -45 69 -25 28 -54 67 -64 88 -39 74 -217 232 -263 232 -42 0 -95 27 -149 76 -51 45 -68 54 -98 54 -20 0 -44 -5 -54 -11z m387 -525 c-7 -39 21 -92 67 -125 16 -11 29 -29 29 -39 0 -31 33 -61 90 -79 49 -16 55 -21 58 -47 1 -16 10 -48 18 -72 21 -55 12 -64 -18 -18 -13 19 -35 40 -49 46 -28 12 -95 4 -105 -11 -3 -5 -27 -9 -53 -9 -46 0 -49 1 -55 31 -3 17 -6 51 -6 76 0 24 -6 58 -14 76 -7 18 -17 73 -21 122 -4 48 -13 106 -21 127 l-14 40 50 -42 c47 -39 50 -45 44 -76z m-234 -84 c0 -19 -4 -50 -9 -67 -5 -18 -6 -45 -2 -60 4 -15 3 -41 -2 -57 -7 -20 -6 -44 3 -79 12 -46 11 -51 -6 -64 -10 -7 -29 -13 -42 -13 -15 0 -38 -14 -58 -36 -40 -42 -45 -30 -9 22 14 20 25 51 25 68 0 17 11 53 25 80 19 38 25 65 25 115 0 40 7 82 17 108 20 46 33 40 33 -17z m-1022 -281 l-3 -42 -16 45 c-15 40 -15 47 0 83 l16 40 3 -42 c2 -24 2 -62 0 -84z m241 -101 c13 -38 1 -58 -24 -38 -23 19 -19 70 6 70 4 0 12 -14 18 -32z m280 -26 c-10 -14 -19 -32 -20 -41 0 -12 -3 -10 -11 6 -8 17 -6 28 12 53 16 23 25 28 31 19 4 -8 0 -23 -12 -37z m231 -154 c0 -16 -3 -19 -11 -11 -6 6 -8 16 -5 22 11 17 16 13 16 -11z"/>
<path d="M1553 2354 c-7 -3 -21 -20 -33 -39 -11 -18 -33 -38 -48 -44 -32 -14 -119 -139 -127 -185 -4 -21 -18 -39 -41 -54 -19 -12 -43 -37 -54 -55 -11 -17 -37 -43 -57 -57 -21 -14 -49 -42 -62 -63 -20 -31 -30 -37 -58 -37 -39 0 -78 -35 -88 -80 -7 -33 -43 -50 -92 -43 -27 4 -38 0 -65 -29 -18 -18 -37 -41 -43 -50 -5 -9 -23 -18 -40 -20 l-30 -3 3 73 c2 44 -1 86 -9 104 -10 25 -9 34 10 68 17 30 21 53 20 107 -1 37 2 85 6 105 6 29 2 45 -14 71 -12 19 -21 51 -21 71 0 79 -59 132 -116 104 -37 -17 -74 -73 -74 -111 0 -18 -9 -41 -22 -55 -19 -19 -23 -34 -21 -74 1 -28 -4 -63 -11 -77 -58 -109 -71 -177 -45 -234 9 -21 7 -31 -15 -63 -29 -43 -32 -71 -14 -121 10 -28 9 -44 -10 -108 -12 -41 -22 -86 -22 -101 0 -14 -9 -37 -20 -51 -11 -14 -22 -39 -24 -57 -3 -17 -10 -63 -16 -103 -8 -49 -8 -82 -1 -107 9 -33 7 -40 -18 -69 -58 -66 -74 -128 -52 -204 8 -28 6 -37 -20 -69 -24 -30 -29 -46 -29 -91 0 -44 5 -58 25 -78 13 -14 33 -25 43 -25 11 0 46 -16 78 -36 54 -32 63 -35 111 -29 51 6 55 5 112 -39 111 -85 156 -88 299 -16 65 32 113 50 136 50 35 0 76 27 76 50 0 6 12 10 28 10 34 0 87 31 104 62 7 13 15 52 18 87 5 65 23 90 35 51 8 -24 54 -50 90 -50 39 0 65 18 81 56 8 19 18 34 23 34 5 0 14 14 21 30 10 23 10 47 1 107 -6 42 -16 82 -23 90 -8 10 -5 19 14 37 22 19 27 35 33 103 4 51 3 95 -5 123 -10 38 -10 44 5 53 9 5 23 23 31 41 l13 31 1 -30 c0 -16 7 -41 15 -55 8 -14 14 -35 15 -48 0 -39 29 -81 70 -102 21 -11 47 -33 57 -50 26 -45 92 -73 151 -66 26 3 69 6 95 6 32 -1 59 6 81 19 l33 21 12 -60 c7 -33 11 -101 9 -150 -4 -129 8 -143 149 -167 66 -11 109 76 83 167 -15 53 -15 76 2 152 l12 56 24 -19 c14 -10 31 -19 39 -19 8 0 43 -25 76 -56 83 -75 152 -114 202 -114 22 0 45 4 51 8 16 10 34 48 34 70 0 21 -145 176 -193 207 -17 11 -39 41 -52 71 -23 52 -49 76 -117 107 -16 6 -28 16 -28 20 0 5 18 35 41 67 29 41 49 59 69 64 40 8 67 37 80 88 7 24 20 57 31 74 10 16 23 64 30 105 6 40 23 106 37 144 14 39 26 92 26 118 1 44 -2 51 -39 83 -57 49 -79 57 -120 40 -24 -10 -36 -23 -40 -43 -23 -105 -32 -134 -56 -178 -15 -27 -30 -61 -34 -75 -4 -13 -20 -37 -36 -52 -18 -18 -32 -47 -39 -81 -10 -49 -43 -108 -54 -97 -3 3 -12 38 -20 78 -23 109 -75 224 -107 236 -43 15 -77 0 -99 -44 -25 -49 -25 -77 0 -164 11 -38 17 -72 15 -75 -3 -2 -5 1 -5 7 0 19 -62 52 -96 52 -17 0 -56 11 -86 24 -44 20 -57 32 -72 65 -11 22 -29 47 -42 56 -51 33 -109 8 -120 -51 -8 -43 -52 -114 -71 -114 -7 0 -22 -9 -33 -20 -26 -26 -34 -11 -34 71 -1 54 -6 74 -24 99 -24 32 -23 60 1 60 23 0 76 64 83 100 4 19 19 49 33 65 40 44 58 76 81 144 28 84 27 151 -3 179 -22 21 -64 28 -94 16z m-263 -753 c-7 -17 -13 -70 -15 -118 -1 -61 -8 -98 -20 -122 -17 -31 -17 -38 -3 -81 9 -28 12 -54 7 -61 -4 -8 -8 -53 -8 -101 1 -70 5 -92 20 -112 19 -24 19 -24 -5 -40 -25 -16 -25 -15 -50 40 -14 31 -26 68 -26 83 0 14 -9 37 -20 51 -11 14 -20 31 -20 38 0 7 -11 34 -24 61 -26 50 -55 75 -101 87 -15 4 -29 12 -32 19 -6 17 25 65 41 65 7 0 23 11 35 24 12 13 35 26 50 29 39 8 88 52 113 100 19 38 58 80 67 71 2 -2 -2 -17 -9 -33z m717 -152 c14 7 26 10 27 9 4 -8 26 -75 26 -80 0 -3 -11 -9 -25 -12 -28 -7 -55 -52 -55 -93 0 -15 9 -47 20 -71 l19 -42 -28 15 c-16 8 -47 17 -70 21 -24 4 -43 13 -46 23 -3 9 -29 36 -59 60 -53 44 -53 45 -41 75 7 17 11 44 8 60 -6 28 -5 28 33 22 28 -4 49 0 73 13 31 16 37 17 63 3 24 -11 35 -12 55 -3z m-1277 -264 c7 -8 30 -20 52 -27 40 -12 51 -26 62 -80 4 -15 20 -43 36 -62 29 -33 30 -35 15 -69 -8 -20 -12 -42 -9 -50 8 -21 -56 -107 -79 -107 -10 0 -32 -13 -47 -30 -34 -36 -75 -39 -113 -10 -14 12 -39 25 -55 31 -27 9 -28 11 -22 62 3 29 13 63 23 77 9 13 17 38 17 55 0 16 9 44 20 60 11 17 20 42 20 57 0 39 39 107 61 108 4 0 12 -7 19 -15z"/>
<path d="M6458 2152 c-5 -19 -2 -21 28 -20 35 1 47 21 18 32 -22 9 -24 8 -25 -11 0 -16 -1 -15 -8 1 -7 19 -8 19 -13 -2z"/>
<path d="M3648 1752 c-16 -9 -28 -20 -28 -24 0 -5 -22 -8 -49 -8 -27 0 -69 -9 -94 -20 -29 -13 -56 -18 -72 -14 -30 8 -71 -16 -87 -52 -14 -29 -24 -31 -31 -4 -3 11 -18 25 -34 32 -15 7 -42 28 -59 45 -57 60 -107 39 -153 -65 -27 -62 -41 -70 -41 -25 0 32 -45 119 -65 127 -27 10 -70 7 -89 -7 -17 -13 -30 -56 -43 -145 -4 -34 0 -55 23 -105 23 -51 27 -74 26 -129 -2 -78 28 -161 70 -194 14 -11 30 -36 37 -56 14 -42 62 -88 92 -88 52 0 89 51 89 120 l0 41 26 -20 c51 -40 113 -17 140 54 l17 46 31 -63 c40 -80 70 -99 119 -76 48 23 63 68 47 144 -7 30 -10 57 -8 59 16 16 59 -96 77 -198 18 -101 61 -157 123 -157 71 0 101 56 73 139 -13 41 -14 56 -4 90 10 33 9 51 -9 118 -25 95 -22 171 8 272 19 62 21 79 11 111 -19 65 -85 89 -143 52z"/>
</g>
<g id="layer103" fill="#02bacf" stroke="none">
<path d="M6005 2300 c-14 -23 93 -123 177 -166 26 -13 48 -29 48 -34 0 -6 47 -58 105 -116 58 -58 105 -109 105 -114 0 -5 -5 -21 -12 -35 -10 -22 -8 -29 13 -51 13 -14 41 -35 61 -47 38 -21 49 -41 26 -50 -21 -7 2 -23 62 -42 73 -23 80 -30 80 -80 0 -23 7 -62 15 -86 9 -24 20 -61 25 -82 7 -34 5 -40 -16 -54 -18 -11 -24 -24 -24 -49 0 -19 -9 -60 -20 -91 -12 -36 -20 -83 -20 -125 0 -37 -5 -90 -11 -118 -9 -42 -8 -55 5 -75 11 -17 16 -48 16 -102 l1 -78 25 47 c13 26 31 73 39 105 23 88 46 145 72 176 20 24 23 40 23 107 0 78 16 137 47 172 16 17 14 70 -2 111 -12 28 14 20 47 -15 26 -28 64 -47 161 -78 36 -12 110 -57 156 -96 39 -34 130 -78 140 -68 14 14 -135 131 -271 214 -38 22 -68 47 -68 55 0 27 -46 67 -120 103 -55 28 -81 48 -104 81 -17 24 -65 66 -106 95 -54 36 -81 63 -95 92 -11 22 -36 60 -56 85 -20 24 -45 60 -55 79 -11 20 -57 72 -104 116 -79 75 -89 81 -147 93 -53 10 -73 21 -134 71 -39 33 -72 60 -74 60 -2 0 -7 -4 -10 -10z"/>
<path d="M5104 2075 c-4 -10 -13 -13 -25 -10 -16 6 -19 1 -19 -34 0 -34 -5 -44 -35 -67 -30 -22 -35 -32 -35 -66 0 -29 -6 -45 -22 -58 -21 -17 -22 -21 -12 -80 10 -58 9 -64 -16 -103 -39 -62 -42 -73 -52 -182 -5 -55 -12 -125 -14 -156 -4 -41 0 -76 15 -126 27 -90 27 -96 -9 -136 -26 -30 -30 -43 -30 -91 0 -32 -4 -56 -11 -56 -22 0 -42 76 -45 173 -4 115 -7 128 -48 185 -25 36 -32 56 -37 121 -4 47 -15 93 -28 119 -14 28 -21 60 -21 99 0 66 -9 87 -33 77 -18 -7 -23 -18 -32 -85 -5 -39 -10 -48 -39 -61 -33 -16 -33 -17 -39 -97 -3 -48 -16 -111 -30 -154 -14 -39 -29 -93 -32 -120 -5 -35 -13 -51 -31 -63 -13 -9 -24 -21 -24 -26 0 -6 -11 -24 -25 -40 -23 -27 -25 -36 -20 -87 11 -107 -33 -110 -65 -4 -16 53 -19 91 -18 173 2 70 -4 140 -16 210 -11 58 -20 137 -20 177 -1 64 -4 75 -28 100 -40 42 -59 103 -46 149 12 47 6 110 -21 198 -20 68 -35 95 -46 84 -3 -3 -6 -86 -7 -184 -1 -120 -6 -192 -15 -218 -23 -68 -17 -127 18 -176 57 -78 62 -100 54 -245 -7 -128 -6 -133 23 -226 28 -86 43 -154 57 -250 3 -19 12 -44 20 -55 14 -18 14 -17 9 12 -7 39 9 52 30 22 l15 -21 11 27 c8 22 13 26 24 17 7 -6 16 -25 20 -42 3 -17 17 -44 31 -61 14 -16 28 -47 31 -69 7 -42 57 -129 74 -129 16 0 12 45 -10 107 -11 31 -23 79 -26 105 -6 41 -3 52 14 71 15 16 22 40 26 92 10 128 18 174 32 186 10 8 14 34 14 83 1 123 28 287 48 294 23 7 42 -66 48 -181 7 -137 24 -201 68 -258 26 -34 40 -70 62 -159 32 -133 42 -157 88 -223 25 -33 37 -63 41 -101 7 -52 27 -88 104 -186 17 -22 20 -23 26 -8 4 9 -11 58 -35 115 -58 138 -69 230 -41 337 12 46 21 111 21 152 0 39 6 87 14 105 8 19 17 72 21 119 4 47 14 96 22 108 9 15 12 33 8 50 -4 15 -6 60 -6 100 1 47 -4 82 -14 102 -19 37 -19 81 0 127 8 19 15 58 15 85 0 35 6 59 21 79 18 25 20 38 14 94 -7 57 -5 69 17 107 14 24 28 67 31 96 6 51 2 67 -9 37z"/>
<path d="M6175 1957 c-4 -10 -4 -53 0 -95 7 -72 9 -116 6 -202 -5 -138 -2 -193 13 -229 15 -38 8 -69 -13 -57 -5 4 -28 -2 -50 -14 -22 -11 -49 -20 -61 -20 -31 0 -24 -20 10 -27 17 -3 33 -10 36 -14 3 -5 18 -9 34 -9 30 0 40 -14 40 -60 0 -16 5 -41 11 -57 7 -15 15 -48 19 -73 20 -117 33 -163 68 -227 39 -70 72 -94 72 -51 0 13 -11 41 -25 63 -25 40 -33 85 -16 85 19 0 23 44 8 94 -37 121 -59 215 -52 225 3 6 26 11 51 11 33 0 44 4 44 15 0 13 7 15 35 9 24 -4 42 -1 58 8 12 8 39 20 60 27 42 14 46 25 16 41 -12 7 -18 18 -15 26 7 18 -21 18 -54 -1 -14 -8 -45 -14 -68 -15 -24 0 -56 -7 -72 -16 -50 -30 -57 -18 -65 118 -4 68 -11 128 -17 135 -5 6 -14 60 -20 119 -11 119 -40 222 -53 191z"/>
<path d="M6001 1856 c-13 -16 -36 -106 -46 -178 -3 -26 -10 -50 -16 -53 -5 -4 -28 -32 -51 -63 -23 -31 -48 -62 -56 -68 -9 -6 -17 -34 -20 -68 -5 -61 -14 -75 -37 -56 -11 9 -15 35 -15 97 0 46 -5 94 -11 105 -7 12 -14 44 -18 72 -4 36 -10 51 -21 51 -12 0 -15 -19 -15 -110 0 -60 -4 -122 -9 -136 -5 -19 -3 -37 9 -58 19 -37 13 -66 -17 -82 -18 -10 -20 -17 -14 -62 4 -29 9 -108 12 -177 2 -68 8 -128 13 -133 18 -18 28 3 33 66 3 36 10 73 16 83 9 17 12 15 29 -16 10 -18 34 -52 54 -73 31 -35 38 -38 57 -28 11 6 38 11 60 11 46 0 65 18 57 52 -4 16 3 37 24 68 39 57 40 98 5 134 -15 14 -33 26 -40 26 -19 0 -124 69 -124 81 0 6 20 30 45 55 37 36 45 50 45 81 0 22 11 54 25 78 20 32 25 53 25 108 0 47 7 83 21 117 21 50 22 81 3 87 -6 2 -16 -3 -23 -11z m-140 -576 c30 -17 51 -66 43 -105 -5 -29 -2 -38 22 -58 34 -30 25 -47 -27 -47 -52 0 -73 12 -89 49 -7 17 -21 33 -31 36 -23 8 -25 47 -3 66 8 7 22 25 30 41 16 30 25 33 55 18z"/>
<path d="M5304 1646 c-8 -21 -75 -56 -108 -56 -30 0 -41 -37 -31 -103 5 -34 2 -56 -14 -92 -25 -57 -26 -73 -5 -103 8 -12 22 -45 30 -73 11 -38 23 -55 47 -69 18 -11 40 -32 50 -49 26 -44 75 -81 107 -81 37 0 91 23 115 50 43 48 58 156 30 223 -16 40 -13 57 22 103 35 47 30 83 -22 152 -50 67 -99 103 -136 101 -13 -1 -36 2 -51 6 -21 5 -29 3 -34 -9z m110 -136 c4 -5 3 -31 -5 -59 -10 -41 -10 -58 0 -93 l13 -42 -36 -31 c-38 -32 -43 -49 -24 -90 25 -55 -39 -59 -68 -3 -9 17 -13 39 -11 49 3 12 -5 31 -19 48 -45 54 -40 135 10 159 15 8 34 29 43 48 16 32 19 34 52 28 20 -4 40 -10 45 -14z"/>
<path d="M1570 2259 c-6 -11 -24 -28 -40 -38 -49 -29 -125 -146 -114 -174 6 -17 -14 -39 -57 -64 -17 -10 -44 -40 -59 -67 -21 -36 -38 -53 -62 -60 -25 -8 -40 -24 -62 -65 -28 -53 -29 -53 -66 -47 l-39 6 -25 -55 c-17 -39 -31 -55 -44 -55 -11 0 -31 -10 -46 -21 -24 -19 -30 -20 -52 -9 -13 8 -25 11 -27 9 -2 -2 -18 -25 -36 -51 -29 -44 -36 -48 -71 -48 -30 0 -48 -8 -76 -32 -47 -42 -70 -31 -66 33 5 84 11 144 17 175 5 21 1 42 -9 62 -22 42 -20 56 10 103 24 38 25 45 14 83 -10 35 -9 49 5 83 17 42 17 42 -10 78 -22 27 -26 43 -22 68 3 19 1 40 -3 48 -15 24 -32 -5 -38 -61 -3 -36 -10 -55 -23 -63 -15 -9 -19 -24 -19 -63 0 -38 -9 -68 -36 -123 -28 -57 -35 -81 -30 -107 3 -19 9 -50 12 -69 5 -27 0 -45 -20 -80 -21 -35 -25 -49 -16 -64 16 -30 12 -93 -10 -163 -11 -34 -20 -78 -20 -96 0 -18 -10 -46 -22 -62 -13 -18 -22 -47 -23 -72 -2 -24 -7 -59 -12 -79 -7 -24 -7 -53 0 -87 10 -47 9 -54 -11 -79 -73 -92 -77 -100 -64 -162 17 -80 16 -86 -19 -125 -39 -45 -39 -93 0 -88 16 1 35 -8 55 -27 40 -39 73 -50 112 -39 41 11 72 -1 146 -57 89 -67 110 -68 231 -7 56 28 118 52 137 54 29 2 36 7 38 28 5 35 28 51 59 39 51 -19 89 27 78 97 -5 39 -3 49 20 75 19 23 24 37 18 53 -4 11 -7 51 -6 87 2 57 -1 72 -22 103 -14 21 -25 51 -25 70 0 19 -7 39 -15 46 -8 6 -21 36 -30 65 -16 57 -52 95 -88 95 -25 0 -121 96 -114 115 3 7 16 15 28 17 15 2 33 20 49 48 20 33 32 44 48 43 15 -2 26 6 38 28 13 25 20 30 40 25 36 -9 61 9 88 62 13 26 40 61 59 78 22 19 40 47 47 73 8 29 20 48 39 59 16 9 37 31 47 50 10 18 35 42 56 53 40 21 58 45 58 80 0 12 16 40 36 62 42 46 79 124 88 185 7 45 -6 56 -24 21z m-814 -999 c19 -16 53 -35 76 -41 60 -17 64 -22 76 -84 8 -38 21 -66 42 -88 32 -34 41 -92 18 -115 -9 -9 -8 -17 2 -37 13 -24 11 -28 -18 -58 -22 -22 -32 -43 -32 -63 0 -42 -28 -66 -68 -58 -28 6 -34 3 -49 -24 -15 -27 -23 -30 -78 -35 -63 -4 -85 2 -123 36 -16 15 -36 21 -70 22 -41 0 -48 3 -56 27 -7 19 -6 35 4 55 7 15 14 49 16 75 1 30 10 58 23 74 14 17 21 41 21 68 0 29 6 47 20 59 14 11 20 29 20 56 0 21 6 44 14 51 11 8 12 18 5 36 -21 57 -4 80 41 52 16 -11 25 -10 47 4 35 22 30 23 69 -12z"/>
<path d="M2526 2018 c-21 -103 -31 -137 -48 -160 -10 -15 -25 -45 -33 -68 -8 -23 -28 -57 -44 -75 -15 -18 -32 -50 -36 -71 -8 -47 -29 -87 -68 -136 -34 -42 -39 -44 -59 -24 -8 8 -23 15 -34 18 -15 2 -22 18 -31 73 -13 72 -46 181 -69 225 l-12 25 -13 -28 c-10 -23 -10 -37 0 -75 25 -90 41 -187 40 -242 -1 -30 6 -91 14 -135 9 -44 17 -86 17 -92 0 -22 -23 -14 -57 19 -18 17 -36 28 -40 25 -4 -4 -1 -27 6 -50 6 -23 18 -67 26 -97 7 -30 23 -91 35 -135 16 -61 20 -102 18 -170 -3 -90 -3 -90 21 -87 13 1 32 -5 42 -14 10 -9 23 -13 28 -9 16 9 13 67 -4 108 -13 33 -13 44 2 112 13 59 14 81 5 101 -13 27 -16 96 -6 107 4 4 19 -2 34 -13 16 -11 32 -20 37 -20 4 0 28 -16 52 -35 24 -19 50 -35 58 -35 8 0 49 -29 90 -65 78 -66 149 -109 166 -98 5 3 -9 21 -32 41 -23 19 -48 47 -56 62 -8 15 -35 40 -60 55 -36 20 -52 39 -73 83 -25 52 -33 60 -97 92 -62 31 -70 39 -73 66 -2 19 3 36 12 44 9 7 16 17 16 22 0 5 19 36 42 68 31 44 51 63 77 71 42 13 61 34 61 67 0 13 11 42 24 65 13 23 27 67 31 97 4 30 20 93 36 140 39 115 39 146 -2 98 l-18 -23 -1 42 c0 46 -17 67 -24 31z"/>
<path d="M1382 1748 c-7 -7 -12 -41 -12 -81 0 -37 -5 -78 -11 -89 -6 -12 -12 -63 -13 -114 -2 -76 -6 -97 -21 -114 -17 -19 -18 -24 -6 -53 22 -52 25 -95 8 -112 -11 -11 -13 -23 -8 -43 5 -15 6 -42 3 -61 -4 -30 -3 -33 16 -27 11 4 23 2 27 -4 3 -5 14 -10 24 -10 23 0 33 70 24 179 -6 76 -5 78 22 103 l28 26 -22 37 c-24 42 -26 56 -9 102 10 28 10 42 -5 82 -9 27 -17 75 -17 107 0 67 -9 91 -28 72z"/>
<path d="M1676 1734 c-3 -9 -6 -26 -6 -39 0 -12 -7 -28 -15 -35 -8 -7 -15 -25 -15 -41 0 -32 -13 -43 -55 -44 -27 0 -30 -3 -27 -29 2 -16 10 -42 18 -58 12 -23 12 -28 1 -28 -7 0 -18 5 -25 12 -23 23 -13 -26 13 -64 14 -20 25 -45 25 -55 0 -10 10 -47 22 -83 11 -36 23 -71 24 -78 2 -7 24 -21 48 -32 33 -14 47 -26 52 -46 5 -19 19 -32 50 -46 40 -17 46 -18 66 -4 16 12 36 14 75 9 44 -5 53 -3 53 10 0 26 -41 47 -90 47 -54 0 -97 24 -80 45 9 11 -2 24 -49 62 -33 26 -66 61 -72 76 -10 24 -9 31 11 52 l23 24 -27 45 c-30 51 -33 78 -10 97 13 10 21 10 47 -3 51 -26 110 -29 143 -7 35 23 57 24 89 3 24 -16 25 -16 25 8 0 35 -30 58 -75 58 -21 0 -53 9 -71 21 -19 11 -38 18 -43 15 -20 -13 -43 9 -72 65 -30 61 -42 71 -53 43z"/>
<path d="M1312 912 c-34 -29 -39 -50 -20 -85 7 -12 13 -42 13 -67 0 -41 2 -45 25 -45 21 0 25 5 25 30 0 24 5 31 23 33 23 4 24 6 17 65 -12 103 -27 116 -83 69z"/>
<path d="M3672 1683 c-5 -10 -12 -35 -16 -55 -8 -46 -20 -48 -41 -8 -18 35 -53 40 -112 15 -44 -19 -53 -30 -53 -71 0 -67 46 -138 122 -188 18 -12 30 -30 34 -54 4 -21 12 -48 19 -62 6 -14 17 -52 24 -85 17 -78 41 -135 57 -135 22 0 23 14 6 73 -13 48 -13 64 -3 92 10 28 9 46 -8 112 -23 94 -20 190 10 279 12 34 19 70 17 80 -4 26 -44 30 -56 7z m-63 -135 c33 -44 38 -67 21 -99 -14 -24 -23 -24 -65 4 -46 29 -63 78 -41 112 24 36 50 31 85 -17z"/>
<path d="M2881 1653 c0 -16 -3 -44 -7 -64 -4 -25 -1 -47 11 -69 30 -57 44 -122 38 -167 -7 -55 20 -133 47 -133 23 0 36 -17 45 -60 14 -65 55 -86 55 -27 1 55 42 262 59 296 13 26 24 241 12 241 -14 0 -46 -63 -66 -133 -10 -36 -26 -64 -42 -77 -24 -19 -27 -19 -45 -4 -10 10 -23 34 -28 55 -6 21 -15 41 -20 44 -6 3 -10 22 -10 41 0 34 -24 84 -41 84 -4 0 -8 -12 -8 -27z m174 -265 c3 -7 1 -42 -3 -78 -6 -54 -10 -65 -26 -65 -13 0 -24 15 -37 50 -25 66 -25 99 0 92 10 -2 25 -1 32 4 19 12 29 11 34 -3z"/>
<path d="M3356 1554 c-20 -40 -51 -87 -67 -105 -16 -18 -29 -36 -29 -41 0 -4 -5 -8 -11 -8 -8 0 -10 19 -6 60 7 85 -1 142 -22 138 -10 -2 -19 -19 -24 -48 -4 -25 -10 -60 -14 -78 -3 -18 0 -38 6 -46 7 -8 14 -58 16 -111 2 -53 7 -100 10 -104 10 -9 35 30 35 54 0 27 27 65 46 65 8 0 21 15 29 34 21 49 32 51 39 8 6 -37 39 -125 65 -171 12 -22 14 -22 23 -7 6 11 4 43 -6 94 -8 42 -20 120 -26 172 -7 52 -15 111 -19 130 l-7 35 -38 -71z"/>
</g>
<g id="layer104" fill="#cbda70" stroke="none">
<path d="M5962 2347 c-26 -27 -28 -66 -7 -106 17 -34 122 -124 175 -151 20 -10 42 -25 48 -33 10 -12 8 -16 -13 -21 -29 -7 -64 -72 -65 -118 0 -28 0 -28 -20 -8 -31 31 -85 27 -120 -9 -16 -16 -32 -41 -35 -57 -4 -16 -13 -47 -21 -69 -8 -23 -14 -54 -14 -70 0 -26 -56 -124 -72 -125 -8 0 -15 22 -23 82 -9 66 -36 98 -86 98 -26 0 -46 -7 -60 -21 -18 -18 -20 -30 -17 -130 2 -60 2 -109 1 -109 -1 0 -10 15 -19 33 -27 52 -96 127 -139 152 -26 15 -65 26 -110 30 -69 7 -70 7 -115 -29 -25 -20 -55 -36 -67 -36 -61 0 -83 -39 -84 -147 l0 -78 -20 45 c-19 42 -19 47 -5 78 9 18 16 56 16 84 0 34 7 62 21 85 18 29 21 45 16 101 -4 57 -2 72 18 107 22 38 42 137 37 179 -3 28 -32 56 -56 56 -28 0 -90 -22 -110 -39 -10 -8 -16 -29 -16 -53 0 -32 -6 -45 -35 -72 -24 -23 -35 -42 -35 -61 0 -15 -10 -43 -21 -62 -18 -29 -21 -45 -17 -104 4 -50 2 -72 -8 -80 -25 -21 -54 -118 -54 -182 0 -34 -7 -93 -17 -131 -15 -61 -18 -67 -30 -50 -7 10 -13 43 -13 76 0 40 -8 78 -25 118 -17 41 -25 78 -25 118 0 79 -24 112 -81 112 -29 0 -47 -7 -64 -24 -20 -21 -45 -81 -45 -112 0 -5 -13 -20 -29 -32 -32 -23 -56 -81 -48 -114 7 -23 -15 -135 -32 -167 -7 -12 -16 -47 -21 -78 -5 -32 -18 -65 -28 -76 -18 -18 -19 -15 -36 90 -9 59 -21 132 -26 162 -6 30 -10 87 -10 127 0 66 -3 76 -29 106 -48 55 -52 70 -42 142 5 38 6 78 0 98 -53 201 -64 223 -109 233 -34 7 -65 -7 -82 -38 -6 -12 -12 -66 -13 -123 -1 -55 -5 -105 -9 -112 -4 -6 -2 -38 4 -69 9 -48 9 -66 -4 -102 -9 -24 -16 -74 -16 -111 0 -63 3 -72 43 -131 46 -70 45 -64 36 -269 -2 -67 1 -99 18 -150 35 -105 63 -218 63 -253 1 -45 33 -112 65 -133 23 -15 32 -16 58 -6 40 15 63 -4 72 -61 7 -42 39 -102 78 -144 30 -33 89 -32 116 3 27 34 26 60 -3 147 -33 98 -34 105 -7 160 17 35 21 57 17 82 -4 21 -1 53 8 82 9 27 18 60 21 76 3 15 9 27 13 27 25 -2 111 -188 112 -241 0 -41 43 -150 76 -193 26 -34 38 -63 46 -109 7 -39 21 -75 38 -97 15 -19 39 -55 55 -80 36 -57 52 -69 92 -70 39 0 73 38 73 82 0 16 -19 73 -41 126 -50 116 -60 210 -36 307 9 33 19 101 23 150 4 50 13 107 20 129 8 21 14 66 14 100 0 36 6 70 14 81 7 11 16 29 18 40 4 16 7 13 13 -13 8 -34 158 -198 202 -221 33 -17 113 -13 158 8 53 24 101 80 115 133 6 24 12 48 14 53 1 6 6 -48 10 -119 3 -70 11 -136 16 -146 5 -10 25 -24 44 -30 41 -13 64 -4 93 36 19 26 20 26 46 9 19 -12 36 -15 59 -10 18 3 56 9 85 12 68 6 103 39 103 94 0 24 9 52 25 75 14 20 26 49 27 63 0 14 2 31 3 36 2 6 4 15 5 20 3 14 19 -49 30 -111 4 -28 13 -61 19 -72 6 -11 11 -34 11 -50 0 -35 73 -179 106 -209 34 -31 87 -31 119 2 32 31 31 63 -1 126 -19 39 -23 54 -14 65 17 19 -4 176 -34 254 -4 11 6 20 37 33 23 9 51 17 62 17 11 0 29 6 40 13 11 8 34 19 50 24 17 6 38 14 48 18 17 7 18 4 11 -31 -4 -22 -13 -53 -20 -70 -7 -17 -18 -101 -25 -185 -11 -141 -10 -157 5 -188 14 -26 16 -46 11 -92 -10 -88 26 -133 88 -110 30 12 64 73 97 176 42 132 53 160 73 182 22 25 36 84 37 161 0 72 33 142 67 142 35 0 182 -74 231 -116 49 -41 141 -84 182 -84 37 0 70 31 70 67 0 21 -16 43 -66 90 -62 60 -103 91 -230 173 -30 19 -63 49 -73 65 -26 43 -47 59 -124 96 -44 21 -73 41 -82 59 -17 33 -64 75 -145 130 -37 25 -60 48 -60 59 0 10 -23 47 -51 82 -28 35 -58 77 -66 93 -17 32 -130 149 -183 188 -19 14 -61 31 -92 38 -47 9 -71 22 -129 71 -81 67 -119 76 -157 36z m142 -83 c47 -43 69 -55 115 -65 31 -6 66 -16 78 -23 37 -19 173 -157 193 -195 10 -20 36 -57 58 -82 23 -25 44 -58 47 -72 8 -29 27 -47 129 -120 36 -26 71 -58 75 -70 12 -31 31 -46 119 -92 60 -31 82 -49 99 -80 13 -23 39 -49 65 -63 61 -35 164 -108 231 -166 55 -48 71 -81 43 -92 -20 -8 -122 41 -168 80 -41 35 -194 116 -220 116 -8 0 -30 9 -51 19 l-37 19 0 -28 c0 -15 -9 -39 -20 -53 -11 -14 -20 -32 -20 -40 0 -9 -4 -19 -10 -22 -5 -3 -10 -46 -10 -95 0 -78 -3 -92 -23 -117 -26 -31 -67 -126 -67 -153 0 -10 -13 -51 -30 -91 -53 -130 -80 -131 -80 -4 0 51 -4 85 -11 87 -22 7 -5 270 22 346 10 29 19 70 19 92 0 29 6 43 22 54 l23 16 -19 63 c-10 34 -21 87 -24 117 l-7 55 -70 25 c-63 23 -70 28 -70 52 -1 20 -12 35 -43 58 -54 39 -70 70 -54 106 12 24 7 30 -88 124 -55 55 -100 104 -100 109 0 6 -30 28 -67 50 -74 43 -158 120 -169 154 -8 24 19 49 44 40 10 -4 43 -30 76 -59z m-972 -214 c-3 -47 -11 -77 -29 -109 -22 -39 -24 -50 -18 -107 6 -55 4 -69 -14 -98 -14 -23 -21 -51 -21 -87 -1 -30 -7 -65 -15 -79 -19 -33 -19 -69 0 -114 10 -23 15 -63 14 -104 -1 -37 2 -84 6 -105 5 -28 3 -42 -8 -55 -10 -11 -18 -49 -22 -107 -4 -49 -14 -104 -21 -122 -8 -18 -14 -63 -14 -101 0 -37 -9 -105 -21 -151 -18 -72 -19 -92 -10 -159 6 -46 24 -109 45 -157 45 -105 50 -126 33 -149 -19 -26 -41 -16 -73 36 -15 24 -39 57 -54 74 -19 22 -29 47 -33 84 -4 31 -18 70 -34 97 -53 84 -72 126 -83 182 -21 102 -49 181 -79 219 -41 53 -52 92 -61 227 -5 67 -12 134 -16 150 -7 29 -7 29 -21 -16 -7 -24 -16 -101 -20 -172 -4 -88 -10 -131 -20 -138 -7 -6 -13 -31 -13 -55 0 -23 -4 -46 -10 -49 -5 -3 -10 -37 -10 -75 0 -58 -4 -73 -21 -89 -19 -17 -21 -27 -15 -68 3 -26 15 -72 26 -101 27 -69 27 -119 0 -127 -11 -3 -24 -4 -28 -1 -21 13 -65 89 -73 128 -6 24 -21 59 -34 78 -12 19 -26 46 -30 59 -6 21 -9 22 -17 8 -5 -10 -15 -17 -22 -17 -8 0 -16 -7 -20 -15 -18 -47 -75 32 -76 104 0 39 -21 125 -56 232 -22 69 -24 89 -22 225 l3 149 -42 64 c-48 70 -55 122 -30 197 9 26 14 97 15 212 1 190 5 212 31 212 26 0 36 -16 61 -100 28 -93 35 -157 22 -202 -12 -44 5 -99 45 -140 26 -27 28 -36 29 -106 0 -42 9 -122 19 -177 10 -57 19 -153 19 -225 2 -122 18 -210 39 -210 6 0 7 20 3 50 -7 50 12 110 34 110 6 0 10 7 10 15 0 8 11 25 25 38 19 17 28 40 35 84 6 33 19 81 30 105 12 27 23 82 27 139 8 94 8 94 40 108 26 11 34 22 38 50 11 67 15 80 31 95 42 43 74 5 74 -87 0 -31 9 -70 21 -97 12 -25 24 -79 28 -120 6 -64 13 -83 44 -129 38 -54 40 -64 38 -161 0 -30 3 -73 8 -95 8 -39 9 -39 10 -8 1 21 12 45 33 69 l32 36 -19 61 c-21 69 -23 151 -8 317 10 103 24 146 63 198 14 17 16 30 9 60 -15 63 -11 101 11 114 14 9 20 24 20 51 0 31 7 44 34 70 28 26 36 41 38 77 2 37 6 45 23 45 11 0 24 6 28 13 5 7 16 12 25 10 14 -3 16 -14 14 -68z m1089 -125 c10 -33 21 -98 25 -145 4 -47 12 -99 19 -116 7 -17 16 -84 20 -148 4 -64 10 -116 14 -116 4 0 16 7 27 15 10 8 39 15 64 15 25 0 56 7 70 15 40 23 79 19 90 -9 5 -13 14 -27 19 -31 21 -13 11 -45 -16 -56 -16 -6 -46 -20 -69 -31 -24 -12 -52 -19 -67 -16 -16 3 -28 0 -31 -8 -3 -9 -22 -14 -51 -14 -25 0 -45 -3 -45 -7 0 -4 9 -36 19 -72 51 -176 57 -213 37 -230 -22 -18 -20 -32 9 -82 28 -50 33 -97 9 -106 -30 -11 -60 15 -97 88 -36 71 -49 115 -67 225 -4 28 -13 61 -19 72 -6 11 -11 39 -11 61 0 32 -4 41 -17 41 -10 0 -40 8 -68 18 -41 15 -50 22 -50 42 0 19 7 26 34 31 61 13 112 41 106 58 -18 45 -27 121 -18 147 7 19 6 39 0 57 -7 21 -6 40 4 69 10 31 10 51 1 97 -35 167 14 280 59 136z m138 -99 c1 -44 5 -53 51 -99 28 -28 50 -58 50 -68 0 -24 45 -58 97 -70 36 -10 43 -15 43 -35 0 -14 9 -49 19 -79 11 -30 16 -57 11 -60 -5 -3 -21 14 -37 37 -26 39 -33 43 -77 46 -31 2 -56 -2 -72 -12 -13 -9 -41 -16 -62 -16 -38 0 -40 2 -50 43 -6 23 -9 53 -5 65 3 12 -2 45 -11 72 -9 28 -21 92 -26 143 -4 50 -16 112 -24 136 l-16 44 54 -49 c50 -46 54 -52 55 -98z m-311 52 c17 -17 15 -50 -8 -99 -13 -30 -20 -66 -20 -114 0 -56 -5 -79 -25 -114 -15 -25 -25 -59 -25 -81 0 -32 -7 -46 -45 -83 -25 -25 -45 -47 -45 -49 0 -3 34 -21 75 -42 41 -21 84 -49 95 -63 29 -37 26 -86 -10 -138 -23 -33 -29 -51 -24 -70 10 -39 -19 -65 -72 -65 -24 0 -55 -5 -69 -12 -23 -10 -29 -8 -65 27 -22 22 -43 48 -46 58 -10 31 -24 0 -24 -53 0 -51 -13 -70 -47 -70 -29 0 -32 14 -37 160 -3 63 -8 140 -12 171 -6 52 -5 58 21 81 26 25 26 25 10 64 -10 25 -13 48 -8 64 4 14 7 76 8 139 0 97 3 115 18 125 30 19 51 -5 58 -65 3 -30 11 -64 17 -76 7 -12 13 -59 13 -105 1 -82 2 -82 9 -29 5 34 15 60 27 70 11 9 41 45 67 80 38 50 50 76 56 120 5 31 10 63 13 71 3 8 8 27 11 43 7 31 39 67 59 67 7 0 18 -5 25 -12z m66 -206 c-8 -148 -8 -158 1 -209 7 -40 6 -42 -21 -48 -57 -12 -93 -34 -100 -60 -6 -26 -18 -32 -29 -15 -3 5 6 27 20 48 14 22 28 57 31 78 3 21 15 57 27 79 14 27 23 68 28 125 4 47 13 102 20 122 12 33 15 35 21 17 5 -11 5 -73 2 -137z m-718 -2 c34 0 99 -50 148 -114 57 -72 60 -108 16 -177 -30 -46 -31 -48 -15 -84 28 -68 11 -189 -33 -239 -23 -26 -91 -56 -127 -56 -41 0 -89 31 -121 80 -15 22 -30 40 -35 40 -19 0 -67 63 -74 97 -4 20 -15 49 -26 64 -24 35 -24 70 1 117 17 30 20 48 15 97 -7 74 8 108 50 115 40 7 91 35 99 56 5 13 14 15 44 10 20 -3 46 -6 58 -6z m225 -336 c-11 -15 -21 -34 -21 -43 -1 -11 -5 -8 -14 8 -12 22 -11 29 12 64 24 37 27 38 35 19 7 -16 4 -27 -12 -48z"/>
<path d="M5808 1229 c-29 -41 -35 -59 -18 -59 5 0 21 -18 35 -40 22 -35 30 -40 62 -40 l37 0 -23 21 c-19 18 -22 28 -17 63 5 34 3 48 -14 69 -12 15 -24 27 -28 27 -4 -1 -19 -19 -34 -41z m42 -35 c0 -22 -2 -25 -15 -14 -12 10 -13 16 -4 26 16 20 19 18 19 -12z"/>
<path d="M5340 1499 c0 -21 -41 -69 -59 -69 -13 0 -21 -10 -25 -31 -9 -49 -8 -55 21 -89 17 -21 26 -42 25 -63 -1 -33 21 -77 38 -77 6 0 6 10 0 26 -17 43 -11 64 26 98 31 29 35 36 25 54 -14 26 -14 82 -1 118 12 31 13 29 -22 38 -18 4 -28 2 -28 -5z m3 -126 c7 -44 -5 -63 -31 -47 -23 15 -27 48 -7 68 24 24 32 20 38 -21z"/>
<path d="M1531 2321 c-20 -21 -46 -43 -58 -50 -28 -14 -111 -138 -124 -184 -6 -24 -20 -43 -40 -54 -17 -10 -41 -35 -54 -57 -13 -21 -40 -48 -62 -60 -21 -12 -47 -38 -58 -59 -16 -30 -25 -37 -51 -37 -40 0 -82 -33 -92 -73 -10 -39 -42 -57 -100 -57 -44 0 -64 -14 -105 -74 -24 -35 -73 -37 -79 -3 -3 13 -1 32 3 43 12 32 10 83 -6 113 -13 26 -12 32 13 79 25 47 26 53 15 95 -10 38 -10 50 2 74 21 40 19 65 -10 107 -18 27 -25 50 -25 85 0 37 -5 52 -23 69 -25 24 -66 28 -98 12 -25 -14 -49 -62 -49 -98 0 -17 -10 -40 -25 -56 -20 -22 -25 -37 -25 -78 0 -37 -9 -70 -31 -117 -37 -77 -46 -134 -30 -183 10 -31 9 -41 -15 -86 -23 -44 -25 -55 -15 -83 16 -46 14 -88 -9 -154 -11 -32 -20 -70 -20 -84 0 -14 -9 -39 -20 -56 -11 -16 -20 -47 -20 -67 0 -20 -5 -49 -10 -64 -13 -33 -16 -99 -6 -140 6 -28 2 -38 -33 -78 -47 -54 -57 -95 -42 -167 10 -47 9 -54 -8 -73 -30 -33 -41 -62 -41 -105 0 -49 39 -101 77 -101 13 0 41 -12 60 -27 31 -24 47 -28 106 -30 44 -1 77 -8 90 -17 125 -90 116 -86 185 -86 57 0 76 5 154 45 55 28 103 45 124 45 27 0 44 8 67 32 18 17 43 33 55 34 62 7 105 63 106 140 1 72 15 84 53 45 57 -57 114 -50 160 20 55 82 57 89 45 136 -7 24 -12 56 -12 71 0 16 -6 37 -14 47 -12 16 -10 21 11 39 15 13 25 34 27 56 2 19 7 48 11 63 4 16 2 55 -5 88 -12 56 -12 61 8 82 11 12 25 33 31 47 l10 25 1 -30 c0 -16 7 -41 15 -55 8 -14 14 -37 15 -51 0 -36 39 -91 79 -111 18 -9 42 -31 52 -48 27 -44 99 -75 153 -65 23 4 65 8 94 9 36 2 62 10 82 24 l30 22 4 -22 c23 -106 27 -146 20 -217 -6 -76 -5 -81 18 -104 20 -20 40 -27 93 -32 66 -7 70 -7 92 19 18 21 23 39 23 81 0 29 -4 65 -10 80 -6 17 -6 51 2 103 6 42 12 78 13 79 5 9 109 -56 162 -102 111 -95 191 -124 241 -89 16 11 22 25 22 54 0 34 -6 44 -40 72 -23 17 -50 47 -62 66 -12 19 -42 47 -66 63 -33 21 -53 44 -71 81 -24 48 -86 105 -133 120 -30 10 55 130 105 148 45 15 66 38 73 79 4 20 17 54 29 76 13 22 26 65 30 95 4 30 20 96 36 146 42 133 40 159 -18 211 -32 29 -56 43 -76 43 -36 0 -77 -40 -77 -76 0 -38 -20 -103 -45 -144 -12 -19 -27 -51 -34 -71 -6 -20 -23 -47 -36 -59 -14 -13 -30 -42 -36 -64 -15 -62 -29 -93 -49 -111 -21 -19 -23 -15 -35 64 -10 60 -52 179 -76 213 -38 53 -94 46 -126 -15 -20 -39 -19 -107 1 -166 24 -67 21 -77 -15 -47 -21 18 -42 26 -67 26 -20 0 -50 9 -67 20 -16 11 -40 20 -52 20 -16 0 -28 12 -44 43 -32 64 -48 77 -89 77 -42 0 -65 -20 -76 -65 -10 -41 -46 -105 -60 -105 -6 0 -23 -10 -38 -21 -15 -12 -30 -19 -33 -15 -3 3 -9 45 -13 93 -6 71 -11 89 -29 104 -29 23 -27 34 10 49 35 15 73 62 83 103 4 16 24 51 46 78 46 59 75 132 85 216 6 58 5 64 -19 88 -37 37 -72 33 -115 -14z m74 -17 c13 -5 15 -15 10 -53 -11 -81 -36 -142 -81 -197 -24 -29 -44 -61 -44 -69 0 -32 -31 -75 -65 -89 -18 -8 -41 -28 -49 -44 -9 -17 -29 -40 -46 -52 -17 -12 -34 -37 -41 -60 -12 -39 -31 -65 -66 -92 -10 -7 -29 -35 -42 -61 -25 -50 -62 -77 -104 -77 -16 0 -28 -8 -35 -25 -7 -16 -20 -25 -34 -25 -16 0 -30 -12 -46 -40 -12 -22 -26 -40 -30 -40 -4 0 -13 -4 -20 -8 -20 -13 55 -90 96 -98 39 -8 79 -55 88 -105 4 -19 15 -45 26 -58 10 -13 18 -37 18 -53 0 -17 10 -44 22 -61 19 -26 22 -46 24 -142 3 -101 1 -114 -16 -130 -16 -14 -20 -31 -20 -80 0 -49 -4 -66 -20 -80 -19 -17 -56 -23 -88 -14 -8 2 -18 -10 -25 -31 -11 -32 -16 -35 -57 -40 -25 -3 -81 -24 -127 -47 -67 -35 -93 -43 -136 -43 -50 0 -60 4 -122 53 -66 51 -70 52 -127 49 -61 -2 -84 5 -131 44 -15 13 -34 21 -42 17 -24 -9 -45 16 -45 53 0 23 10 44 32 69 l31 36 -12 64 c-15 76 -12 90 40 152 38 45 40 51 33 93 -9 58 -6 122 6 134 6 6 10 30 10 54 0 29 7 54 22 75 12 17 21 43 20 59 -1 15 7 55 18 88 22 67 25 112 9 158 -9 27 -8 36 12 64 24 33 26 59 14 149 -5 36 -2 54 14 85 12 21 21 44 21 50 0 6 7 17 15 24 10 8 15 31 15 69 0 48 4 61 25 81 19 18 25 34 25 65 0 49 19 79 46 73 15 -2 20 -14 24 -58 3 -37 13 -65 28 -84 26 -34 27 -48 5 -82 -14 -22 -15 -32 -4 -74 12 -47 11 -52 -15 -99 l-28 -49 19 -42 c16 -35 17 -48 7 -84 -6 -23 -8 -52 -5 -64 3 -12 -2 -39 -10 -61 -13 -33 -14 -42 -2 -57 12 -17 15 -17 46 14 25 25 41 32 71 32 36 0 41 4 70 50 23 36 37 50 54 50 13 0 25 -4 28 -9 3 -4 26 1 50 13 32 15 50 32 61 56 29 64 31 65 74 65 40 0 43 2 69 50 20 37 36 53 61 61 24 8 40 23 57 55 15 27 43 56 69 73 38 23 45 33 45 59 0 41 81 163 114 171 13 3 33 22 45 41 22 38 22 38 46 29z m960 -272 c5 -12 19 -22 30 -24 30 -4 29 -34 -4 -139 -17 -52 -35 -123 -40 -158 -6 -35 -18 -75 -26 -88 -9 -14 -23 -47 -31 -74 -13 -44 -19 -50 -55 -60 -29 -9 -48 -25 -72 -58 -45 -64 -77 -120 -77 -136 0 -7 30 -28 68 -47 61 -30 69 -38 95 -91 22 -45 39 -64 78 -88 27 -17 49 -35 49 -41 0 -5 25 -34 56 -64 60 -59 65 -84 16 -84 -34 0 -125 58 -196 124 -27 26 -59 46 -71 46 -12 0 -30 9 -41 21 -22 25 -93 63 -102 55 -3 -3 1 -30 8 -60 7 -30 9 -63 5 -73 -18 -43 -22 -108 -9 -147 17 -46 18 -90 4 -117 -12 -22 -43 -25 -59 -5 -6 7 -22 11 -35 9 -35 -7 -41 11 -38 112 2 67 -2 110 -19 170 -11 44 -25 101 -29 127 -5 25 -16 60 -24 77 -40 77 -2 129 56 74 25 -23 29 -25 25 -8 -3 11 -9 43 -13 70 -3 28 -11 55 -16 62 -5 7 -7 36 -3 65 5 50 0 88 -37 244 -9 41 -9 58 1 83 22 52 45 40 79 -41 23 -56 62 -209 62 -244 0 -2 6 -4 14 -4 8 0 22 -7 30 -16 14 -14 17 -13 28 10 6 14 15 26 20 26 12 0 58 100 58 127 0 12 13 37 28 55 40 47 108 193 123 263 17 78 42 96 64 47z m-1155 -262 c11 -7 15 -29 17 -77 0 -37 8 -88 17 -112 19 -52 20 -74 4 -117 -10 -27 -8 -36 10 -66 28 -45 28 -54 -4 -83 -18 -17 -26 -34 -25 -52 6 -88 2 -226 -7 -235 -6 -6 -30 -7 -63 -1 l-54 8 -2 83 c-2 48 1 82 7 82 15 0 12 26 -7 80 -16 46 -16 49 2 76 16 23 20 48 21 119 0 50 6 100 12 112 7 12 12 52 12 89 0 49 5 73 17 86 18 21 22 21 43 8z m332 -62 c27 -51 38 -63 56 -61 12 2 37 -6 54 -17 18 -11 50 -20 71 -20 48 0 87 -36 87 -78 0 -37 -23 -47 -59 -26 -26 15 -30 15 -67 -4 -45 -23 -106 -21 -157 5 -40 20 -45 -3 -12 -67 l27 -53 -21 -28 c-11 -15 -18 -34 -15 -42 3 -8 35 -38 70 -67 49 -39 65 -57 61 -71 -5 -20 0 -23 83 -34 52 -7 80 -29 80 -61 0 -28 -28 -38 -85 -30 -26 4 -46 3 -50 -4 -10 -16 -74 -12 -106 7 -17 10 -32 28 -36 41 -4 16 -20 30 -49 43 -26 11 -48 28 -53 41 -21 58 -41 127 -41 145 0 10 -13 40 -30 66 -32 51 -39 94 -16 103 10 4 12 14 6 39 -10 43 -3 53 40 57 31 3 35 7 38 33 2 17 10 37 17 45 7 8 16 31 20 50 10 46 13 50 35 50 13 0 29 -20 52 -62z m-443 -95 c-5 -14 -13 -69 -16 -122 -4 -57 -12 -105 -21 -118 -10 -16 -12 -37 -8 -70 7 -54 7 -55 3 -177 -3 -75 0 -92 16 -112 18 -24 18 -26 2 -44 -22 -25 -45 -26 -45 -2 0 10 -7 28 -17 41 -9 13 -20 44 -25 69 -4 25 -14 53 -22 61 -8 9 -19 35 -25 59 -16 56 -63 109 -111 122 -52 14 -57 35 -17 71 65 59 76 66 102 73 46 12 76 37 107 93 40 71 100 115 77 56z m679 -161 c18 -2 38 0 45 6 9 8 16 -2 28 -39 11 -36 12 -49 4 -49 -23 0 -63 -40 -70 -69 -3 -16 1 -46 10 -72 32 -86 32 -83 -6 -60 -19 12 -46 21 -60 21 -19 0 -46 20 -98 70 -65 63 -71 71 -60 91 6 12 9 37 6 55 l-6 34 53 0 c30 0 60 6 72 15 10 8 26 12 34 8 8 -3 30 -8 48 -11z m-594 -505 c11 -8 21 -37 28 -84 12 -82 7 -103 -21 -103 -15 0 -20 -8 -23 -32 -2 -27 -8 -34 -29 -36 -39 -5 -62 23 -55 66 3 21 -1 46 -9 63 -24 45 -18 71 22 106 42 35 60 40 87 20z"/>
<path d="M692 1252 c-19 -13 -30 -13 -53 -5 -32 12 -35 7 -17 -31 9 -21 8 -29 -5 -44 -10 -10 -17 -35 -17 -55 0 -27 -7 -43 -24 -58 -20 -17 -23 -28 -19 -55 4 -27 0 -41 -22 -70 -22 -29 -26 -43 -22 -74 3 -25 0 -46 -10 -59 -8 -12 -13 -31 -11 -44 3 -19 8 -22 38 -19 33 2 48 -5 111 -50 19 -13 37 -16 80 -11 48 5 57 9 72 35 15 27 22 30 52 25 38 -6 60 11 51 41 -4 12 5 32 28 59 26 30 32 43 23 52 -8 8 -8 19 1 44 18 50 15 64 -23 114 -19 25 -35 56 -35 69 0 42 -18 73 -47 80 -56 12 -65 16 -96 44 -30 26 -33 27 -55 12z m61 -75 c24 -13 53 -26 64 -29 15 -4 22 -17 26 -47 3 -25 18 -57 38 -82 27 -35 31 -44 21 -60 -7 -10 -12 -33 -12 -51 0 -18 -9 -44 -20 -58 -11 -14 -20 -30 -20 -37 0 -6 -14 -16 -32 -22 -18 -6 -44 -22 -58 -35 -37 -34 -72 -40 -103 -16 -14 11 -40 27 -58 34 -30 12 -33 18 -34 57 -1 30 6 57 22 85 12 22 23 52 23 65 0 14 9 42 20 64 11 22 20 49 20 62 0 24 37 93 50 93 5 0 29 -11 53 -23z"/>
<path d="M6481 2143 c0 -13 2 -14 6 -4 5 11 7 11 14 0 7 -11 9 -10 9 4 0 9 -7 17 -15 17 -8 0 -15 -8 -14 -17z"/>
<path d="M3665 1758 c-11 -6 -28 -18 -38 -26 -11 -10 -33 -15 -55 -13 -21 1 -58 -7 -86 -18 -26 -12 -64 -21 -85 -21 -43 0 -63 -13 -84 -55 l-15 -30 -13 27 c-7 17 -25 32 -45 38 -19 7 -34 16 -34 21 0 20 -42 49 -71 49 -48 0 -64 -14 -93 -84 -28 -65 -46 -77 -46 -32 0 30 -46 113 -70 126 -50 27 -97 -4 -111 -70 -23 -108 -22 -114 7 -176 24 -49 29 -73 29 -139 1 -91 27 -163 68 -190 14 -8 32 -36 42 -60 20 -53 47 -75 92 -75 47 0 70 30 78 103 7 59 8 61 22 40 12 -18 25 -23 57 -23 50 0 82 27 92 78 4 18 10 32 15 32 4 0 18 -24 32 -53 31 -68 51 -87 92 -87 25 0 39 7 55 28 19 23 21 35 17 92 -3 36 -9 76 -13 90 l-7 25 24 -22 c23 -22 34 -55 65 -183 9 -36 23 -82 32 -103 30 -74 93 -97 147 -55 26 20 27 24 20 77 -4 31 -7 90 -6 131 1 43 -5 96 -14 125 -21 72 -19 179 5 243 30 79 27 137 -9 173 -31 30 -62 36 -96 17z m69 -54 c21 -20 20 -42 -4 -114 -30 -89 -33 -180 -8 -273 18 -68 19 -84 8 -116 -10 -32 -9 -46 5 -93 22 -68 16 -88 -24 -88 -25 0 -34 7 -51 40 -11 21 -20 50 -20 63 0 14 -11 58 -24 98 -13 41 -26 86 -29 100 -4 14 -24 38 -44 52 -43 30 -87 82 -98 115 -15 49 -13 11 5 -98 10 -63 22 -131 26 -151 7 -40 -8 -79 -31 -79 -20 0 -49 48 -76 127 -21 58 -23 61 -36 43 -8 -11 -23 -20 -33 -20 -13 0 -21 -10 -25 -32 -12 -52 -34 -88 -55 -88 -28 0 -32 12 -35 109 -6 203 -49 159 -84 -85 -18 -127 -20 -134 -37 -141 -23 -9 -52 25 -67 76 -9 34 -18 47 -34 49 -35 5 -64 79 -61 160 2 54 -3 80 -26 135 -20 50 -26 77 -22 100 4 18 8 43 10 57 2 14 4 31 4 38 1 6 12 12 25 12 26 0 57 -52 57 -98 0 -15 7 -36 15 -46 8 -11 15 -27 15 -36 0 -9 6 -25 14 -36 21 -28 35 -10 76 98 38 98 57 121 85 98 15 -12 16 -26 11 -95 -5 -56 -4 -75 3 -65 6 8 11 25 11 38 0 54 42 81 70 47 7 -9 13 -46 14 -86 l1 -71 20 26 c11 15 36 57 55 94 39 72 69 89 80 43 l6 -24 17 26 c35 55 139 75 177 35 l20 -22 0 27 c0 53 60 85 94 51z"/>
<path d="M3541 1556 c-19 -23 -2 -63 35 -85 l34 -20 6 24 c5 18 -1 35 -20 60 -30 39 -38 42 -55 21z"/>
<path d="M3008 1363 c-23 -6 -22 -19 2 -63 l19 -35 1 30 c0 17 3 40 6 53 6 22 4 24 -28 15z"/>
</g>


</svg>